<mxfile host="app.diagrams.net" modified="2023-11-03T09:42:13.043Z" agent="Mozilla/5.0 (Macintosh; Intel Mac OS X 10_15_7) AppleWebKit/605.1.15 (KHTML, like Gecko) Version/15.5 Safari/605.1.15" etag="z_JL4S5WKvS7U2A6ipa3" version="22.0.8" type="google">
  <diagram name="Page-1" id="J-FUxpCLJH2XWZtCsFEr">
    <mxGraphModel grid="1" page="1" gridSize="10" guides="1" tooltips="1" connect="1" arrows="1" fold="1" pageScale="1" pageWidth="827" pageHeight="1169" math="0" shadow="0">
      <root>
        <mxCell id="0" />
        <mxCell id="1" parent="0" />
        <mxCell id="AoGtgX9DV2KB_T8Uw5mt-10" value="" style="shape=image;imageAspect=0;aspect=fixed;verticalLabelPosition=bottom;verticalAlign=top;image=data:image/png,iVBORw0KGgoAAAANSUhEUgAAAlUAAAHHCAYAAACWQK1nAAAAOXRFWHRTb2Z0d2FyZQBNYXRwbG90bGliIHZlcnNpb24zLjcuMSwgaHR0cHM6Ly9tYXRwbG90bGliLm9yZy/bCgiHAAAACXBIWXMAAA9hAAAPYQGoP6dpAABnUUlEQVR4nO3dd1xTZ/s/8E9YYYYlEBAE90DEVZVq1VYUR622ts66q1Vx4K5P66itWrVaq0Xt+D1qrXWPbx3VIq5WcaFY96goDoYLwl65f3/45NTIChBIkM/79cpLc8517nMlAXN53/e5j0wIIUBEREREpWJi6ASIiIiIXgUsqoiIiIj0gEUVERERkR6wqCIiIiLSAxZVRERERHrAooqIiIhID1hUEREREekBiyoiIiIiPWBRRURERKQHLKqISC+OHDkCmUyGI0eOFPvYO3fuQCaTYe3atXrPiyqelJQUfPTRR1AqlZDJZAgJCTF0SkQ6YVFF9D9r166FTCbD2bNn8+yLiorChx9+CC8vL8jlcjg5OSEwMBBr1qxBbm6uFCeTySCTybBkyRKd2p8zZw5kMhnc3NyQlpaW5xgfHx+8/fbbpXpdQ4YMkfIq7DFkyJBSnaei0hSD27ZtM3QqRi8xMREmJiY4cOAAAGDnzp2Qy+XIzMzU63nmz5+PtWvXYvTo0Vi/fj0GDhxYYKw+fkeI9MXM0AkQGbuffvoJo0aNgpubGwYOHIjatWsjOTkZ4eHhGD58OGJjY/Gf//xH65jFixdj9OjRsLa21ukcCQkJWLVqFSZPnqz3/D/++GMEBgZKz6OjozFr1iyMHDkSb7zxhrS9Zs2apTpP27ZtkZ6eDgsLi2If6+3tjfT0dJibm5cqBypbp0+fBgC0bNkSABAREYEmTZpALpfr9TyHDh1Cq1atMHv2bL22S1TWWFQRFeLkyZMYNWoUAgICsG/fPtjZ2Un7QkJCcPbsWVy6dEnrmMaNGyMqKgqrV6/GpEmTdDpP48aNsXjxYowZMwZWVlZ6fQ0BAQEICAiQnp89exazZs1CQEAAPvzwwwKPS01NhY2Njc7nMTExgaWlZYlylMlkJT6Wys/p06dRt25dODg4AHheVGkKLH1KSEhAgwYN9N6uMSju7xVVLBz+IyrE559/DplMhg0bNmgVVBrNmzfPM2zWunVrvPXWW1i0aBHS09N1Os+sWbMQHx+PVatWFRm7adMmNGvWDHZ2dlAoFPDz88O3336r03kKohmaPHr0KMaMGQNXV1d4enoCAO7evYsxY8agbt26sLKygrOzMz744APcuXNHq4385lS1b98eDRs2xJUrV/Dmm2/C2toaVatWxaJFi7SOzW9O1ZAhQ2Bra4sHDx6gZ8+esLW1hYuLC6ZMmaI15AoAT548wcCBA6FQKODg4IDBgwfjwoULep2ndfv2bXzwwQdwcnKCtbU1WrVqhb179+aJW7FiBXx9fWFtbQ1HR0c0b94cv/76q7Q/OTkZISEh8PHxgVwuh6urKzp27Ihz584VeO5t27ZJn8/Lvv/+e8hkMqm4j4uLw9ChQ+Hp6Qm5XA53d3f06NEjz+elq6SkJDx+/BiPHz9GREQE/P398fjxY8THxyMyMhL16tXD48ePkZSUVGRbCQkJGD58ONzc3GBpaQl/f3+sW7dO2q/5GYqOjsbevXuloemS5q7x559/4oMPPkC1atUgl8vh5eWFiRMnav1+rlmzBjKZDOfPn89z/Pz582FqaooHDx5I206dOoXOnTvD3t4e1tbWaNeuHY4fP651nGZ4/8qVK+jfvz8cHR3Rpk0bAPr/nMg4sKgiKkBaWhrCw8PRtm1bVKtWrVjHzpkzR+ciCQDeeOMNnQqxsLAw9OvXD46Ojli4cCG++uortG/fPs8/5iU1ZswYXLlyBbNmzcInn3wCADhz5gxOnDiBvn37Yvny5Rg1ahTCw8PRvn37fOeBvezZs2fo3Lkz/P39sWTJEtSrVw/Tp0/H77//XuSxubm5CAoKgrOzM77++mu0a9cOS5YswQ8//CDFqNVqdO/eHRs3bsTgwYMxb948xMbGYvDgwSV/I14SHx+P119/HQcOHMCYMWMwb948ZGRk4J133sHOnTuluB9//BHjx49HgwYNsGzZMnz++edo3LgxTp06JcWMGjUKq1atQq9evbBy5UpMmTIFVlZWuHr1aoHn79atG2xtbbFly5Y8+zZv3gxfX180bNgQANCrVy/s3LkTQ4cOxcqVKzF+/HgkJycjJiamRK+9R48ecHFxgYuLC/bt24fNmzfDxcUFSqUS6enpGDNmDFxcXNCjR49C20lPT0f79u2xfv16DBgwAIsXL4a9vT2GDBki/aegfv36WL9+PapUqYLGjRtj/fr1WL9+PVxcXEqUu8bWrVuRlpaG0aNHY8WKFQgKCsKKFSswaNAgKeb999+HlZUVNmzYkOf4DRs2oH379qhatSqA58OTbdu2hUqlwuzZszF//nwkJibirbfekoZIX/TBBx8gLS0N8+fPx4gRIwDo/3MiIyGISAghxJo1awQAcebMGSGEEBcuXBAAxIQJE3RuA4AIDg4WQgjx5ptvCqVSKdLS0vJtXwghZs+eLQCIR48eiaNHjwoAYunSpdJ+b29v0a1bN+n5hAkThEKhEDk5OSV+nWfOnBEAxJo1a6RtmtzatGmTp21N/i+KiIgQAMTPP/8sbTt8+LAAIA4fPixta9euXZ64zMxMoVQqRa9evaRt0dHReXIaPHiwACDmzp2rde4mTZqIZs2aSc+3b98uAIhly5ZJ23Jzc8Vbb72Vp838aPLeunVrgTEhISECgPjzzz+lbcnJyaJ69erCx8dH5ObmCiGE6NGjh/D19S30fPb29tLPSHH069dPuLq6an0+sbGxwsTERHqPnj17JgCIxYsXF7v9gpw9e1aEhYWJ0NBQAUD88ssvIiwsTAwZMkR4eXmJsLAwERYWJs6ePVtoO8uWLZOO18jKyhIBAQHC1tZWqFQqafvLP/eF0SU2v5/hBQsWCJlMJu7evStt69evn/Dw8JA+TyGEOHfunNbPkVqtFrVr1xZBQUFCrVZrnaN69eqiY8eO0jbN73e/fv20zl0WnxMZB/ZUERVApVIBQL7DfrqYM2cO4uLisHr1ap3i27ZtizfffLPQ3ioHBwekpqYiLCysRDkVZcSIETA1NdXa9uIcr+zsbDx58gS1atWCg4NDoUNWGra2tlpztywsLNCiRQvcvn1bp5xGjRql9fyNN97QOnb//v0wNzeXegCA5/O7goODdWpfF/v27UOLFi2koRvg+esaOXIk7ty5gytXrgB4/vncv38fZ86cKbAtBwcHnDp1Cg8fPixWDn369EFCQoLW8Oq2bdugVqvRp08fAM8/KwsLCxw5cgTPnj0rVvsFadasGQIDA5GTkwMPDw8MGDAAgYGBePToETp06IDAwEAEBgaiWbNmhbazb98+KJVK9OvXT9pmbm6O8ePHIyUlJd+hTX158Wc4NTUVjx8/xuuvvw4hhNZw36BBg/Dw4UMcPnxY2rZhwwZYWVmhV69eAJ5fCXzz5k30798fT548kYZGU1NT0aFDBxw7dgxqtVrr/C//DJfF50TGgUUVUQEUCgWA53NgSkKXIullRRViY8aMQZ06ddClSxd4enpi2LBh2L9/f4nyy0/16tXzbEtPT8esWbOk5SSqVKkCFxcXJCYm6jSPxtPTEzKZTGubo6OjTl8mlpaWeYZ+Xj727t27cHd3z3OlZa1atYpsX1d3795F3bp182yvX7++tB8Apk+fDltbW7Ro0QK1a9dGcHBwnqHZRYsW4dKlS/Dy8kKLFi0wZ84cnQpMzfydzZs3S9s2b96Mxo0bo06dOgAAuVyOhQsX4vfff4ebmxvatm2LRYsWIS4urkSvOyUlRSoawsLC0KpVKzx+/BgJCQn4888/0bRpUzx+/Finz/Lu3buoXbs2TEy0v3Zefg/LQkxMDIYMGQInJydpbl67du0AQOtnuGPHjnB3d5eGANVqNTZu3IgePXpI/7m6efMmAGDw4MHSsKjm8dNPPyEzMzPP78XLv1f6/pzIeLCoIipArVq1YGZmhosXL5a4jdmzZyMuLg7ff/+9TvFt27ZF+/btCyzEXF1dERUVhd9++w3vvPMODh8+jC5duuht/lB+Vx6OGzcO8+bNQ+/evbFlyxb88ccfCAsLg7Ozc57/kefn5Z4vDSFEiY81VvXr18f169exadMmtGnTBtu3b0ebNm20lgbo3bs3bt++jRUrVsDDwwOLFy+Gr69vkXPM5HI5evbsiZ07dyInJwcPHjzA8ePHpV4qjZCQENy4cQMLFiyApaUlZs6cifr16+c7AbsoY8eOlQqGPXv2YMeOHXBxcYGbmxtUKhXGjx8PFxcXNGnSpNhtl5fc3Fx07NgRe/fuxfTp07Fr1y6EhYVJFzC8+DNsamqK/v37Y/v27cjIyMDhw4fx8OFDrZ5WTfzixYsRFhaW78PW1lYrh/x+r/T5OZHxYFFFVABra2u89dZbOHbsGO7du1eiNtq1a4f27dtj4cKFxe6tKqgQs7CwQPfu3bFy5Ur8888/+Pjjj/Hzzz/j1q1bJcqxKNu2bcPgwYOxZMkSvP/+++jYsSPatGmDxMTEMjlfcXl7eyM2NjbPpHl9vh/e3t64fv16nu3Xrl2T9mvY2NigT58+WLNmDWJiYtCtWzdpYruGu7s7xowZg127diE6OhrOzs6YN29ekXn06dMHjx8/Rnh4OLZu3QohRJ6iCni+5tjkyZPxxx9/4NKlS8jKysp3QdqiTJs2DWFhYdKFAT///DPCwsIwYsQIVK1aVSoi8pvc/TJvb2/cvHkzTyGe33uoTxcvXsSNGzewZMkSTJ8+HT169EBgYCA8PDzyjR80aBBUKhV2796NDRs2wMXFBUFBQdJ+zXpuCoVCGvp8+aHremv6+pzIeLCoIirE7NmzIYTAwIEDkZKSkmd/ZGSk1iXh+dEUSS9esVaYFwuxF7+IgedLB7zIxMQEjRo1AgC9r2qtYWpqmqdXacWKFXmWNTCUoKAgZGdn48cff5S2qdVqhIaG6u0cXbt2xenTpxERESFtS01NxQ8//AAfHx9pTaWXPx8LCws0aNAAQghkZ2cjNzc3z9CQq6srPDw8dPr8AgMD4eTkhM2bN2Pz5s1o0aKF1tBSWlpanp+ZmjVrws7OTqv92NhYXLt2DdnZ2YWer0GDBggMDISZmRkcHR3x4YcfIjAwECqVCm3atJGKiNatWxeZe9euXREXF6c1fJmTk4MVK1bA1tZWGo7TN01v54s/w0KIApchadSoERo1aoSffvoJ27dvR9++fWFm9u+Sjs2aNUPNmjXx9ddf5/tvwqNHj4rMSdfPiSoeLv5JVIjXX38doaGhGDNmDOrVq6e1ovqRI0fw22+/4csvvyy0jXbt2qFdu3bFmog7e/ZsvPnmm3m2f/TRR3j69CneeusteHp64u7du1ixYgUaN24szU3Rt7fffhvr16+Hvb09GjRogIiICBw8eBDOzs5lcr7i6tmzJ1q0aIHJkyfj1q1bqFevHn777Tc8ffoUAPLM5yrI9u3bpV6TFw0ePBiffPIJNm7ciC5dumD8+PFwcnLCunXrEB0dje3bt0vzhDp16gSlUonWrVvDzc0NV69exXfffYdu3brBzs4OiYmJ8PT0xPvvvw9/f3/Y2tri4MGDOHPmjE49FObm5njvvfewadMmpKam4uuvv9baf+PGDXTo0AG9e/dGgwYNYGZmhp07dyI+Ph59+/aV4mbMmCHl7+PjU+R5jx8/jlatWknv5YkTJzBlypQij3vRyJEj8f3332PIkCGIjIyEj48Ptm3bhuPHj2PZsmUlviAEeN4rmd/vYZMmTdCpUyfUrFkTU6ZMwYMHD6BQKLB9+/ZC54ENGjRIen0vL5BrYmKCn376CV26dIGvry+GDh2KqlWr4sGDBzh8+DAUCgV2795daL66fk5UARnuwkMi45LfkgcakZGRon///sLDw0OYm5sLR0dH0aFDB7Fu3Tqty6/xwpIKL9Jctv9y+y8uqfAyzXIEL14uvm3bNtGpUyfh6uoqLCwsRLVq1cTHH38sYmNjdX6dhS2pkN9rf/bsmRg6dKioUqWKsLW1FUFBQeLatWvC29tbDB48OM9rfHlJhfyWGBg8eLDw9vaWnhe0pIKNjU2eYzXv2YsePXok+vfvL+zs7IS9vb0YMmSIOH78uAAgNm3aVOj78eJnk99Ds4zCP//8I95//33h4OAgLC0tRYsWLcSePXu02vr+++9F27ZthbOzs5DL5aJmzZpi6tSpIikpSQjxfDmJqVOnCn9/f2FnZydsbGyEv7+/WLlyZaE5vigsLEwAEDKZTNy7d09r3+PHj0VwcLCoV6+esLGxEfb29qJly5Ziy5YtWnGa5Sqio6N1Ome9evXEF198IYQQ4v79+wX+rBQlPj5e+lmysLAQfn5++S55UdwlFQr67IYPHy6EEOLKlSsiMDBQ2NraiipVqogRI0ZIS6bkd/7Y2Fhhamoq6tSpU+B5z58/L9577z3ps/b29ha9e/cW4eHhUkxBv9+6fk5U8ciE0GG2KBFRBbNr1y68++67+Ouvv3QaniLSePz4Mdzd3TFr1izMnDnT0OlQBcI5VURU4b18EUBubi5WrFgBhUKBpk2bGigrqqjWrl2L3NxcDBw40NCpUAXDOVVEVOGNGzcO6enpCAgIQGZmJnbs2IETJ05g/vz5er9BNb26Dh06hCtXrmDevHno2bOnTvPNiF7E4T8iqvB+/fVXLFmyBLdu3UJGRgZq1aqF0aNHY+zYsYZOjSqQ9u3b48SJE2jdujV++eUX6V5/RLpiUUVERESkB5xTRURERKQHLKqIiIiI9IAT1cuRWq3Gw4cPYWdnp/OChERERGRYQggkJyfDw8Mjz03BX8Siqhw9fPgQXl5ehk6DiIiISuDevXvw9PQscD+LqnKkuQ3DvXv3oFAoDJwNERER6UKlUsHLy6vI2ymxqCpHmiE/hULBooqIiKiCKWrqDieqExEREekBiyoiIiIiPWBRRURERKQHnFNlhHJzc5GdnW3oNIjKnbm5OUxNTQ2dBhFRibCoMiJCCMTFxSExMdHQqRAZjIODA5RKJddyI6IKh0WVEdEUVK6urrC2tuaXClUqQgikpaUhISEBAODu7m7gjIiIiodFlZHIzc2VCipnZ2dDp0NkEFZWVgCAhIQEuLq6ciiQiCoUTlQ3Epo5VNbW1gbOhMiwNL8DnFdIRBUNiyojwyE/quz4O0BEFRWLKiIiIiI9YFFFVI7at2+PkJAQnePv3LkDmUyGqKioMsuJiIj0g0UVlcqQIUPQs2dPrW1xcXEYN24catSoAblcDi8vL3Tv3h3h4eFSjI+PD5YtW1Zguzt37kSrVq1gb28POzs7+Pr6SsVI+/btIZPJCny0b99eOodMJsOmTZvytO/r6wuZTIa1a9fme37NsQU9hgwZUox36V87duzAF198oXO8l5cXYmNj0bBhwxKdT1cs3oiISo9X/5Fe3blzB61bt4aDgwMWL14MPz8/ZGdn48CBAwgODsa1a9eKbCM8PBx9+vTBvHnz8M4770Amk+HKlSsICwsD8LwwycrKAgDcu3cPLVq0wMGDB+Hr6wsAsLCwkNry8vLCmjVr0LdvX2nbyZMnERcXBxsbmwJzOHPmDHJzcwEAJ06cQK9evXD9+nXpRtiaq9Q0srOzYW5uXuRrc3JyKjLmRaamplAqlcU6hoiI9Ect1Ljy6IpOseypIr0aM2YMZDIZTp8+jV69eqFOnTrw9fXFpEmTcPLkSZ3a2L17N1q3bo2pU6eibt26qFOnDnr27InQ0FAAzwsTpVIJpVIJFxcXAICzs7O07cXCZcCAATh69Cju3bsnbfvvf/+LAQMGwMys4P9TuLi45GnP1dUVSqUSGRkZcHBwwObNm9GuXTtYWlpiw4YNePLkCfr164eqVavC2toafn5+2Lhxo1a7Lw//+fj4YP78+Rg2bBjs7OxQrVo1/PDDD9L+l3uQjhw5AplMhvDwcDRv3hzW1tZ4/fXXcf36da3zfPnll3B1dYWdnR0++ugjfPLJJ2jcuLFO739+MjMzMX78eLi6usLS0hJt2rTBmTNnpP3Pnj3DgAED4OLiAisrK9SuXRtr1qwBAGRlZWHs2LFwd3eHpaUlvL29sWDBghLnQkRUnuJS4hDwU4BOsSyqjJUQQE6qYR5ClCjlp0+fYv/+/QgODs63F8jBwUGndpRKJS5fvoxLly6VKI8Xubm5ISgoCOvWrQMApKWlYfPmzRg2bFip2/7kk08wYcIEXL16FUFBQcjIyECzZs2wd+9eXLp0CSNHjsTAgQNx+vTpQttZsmQJmjdvjvPnz2PMmDEYPXp0niLpZZ9++imWLFmCs2fPwszMTOv1bNiwAfPmzcPChQsRGRmJatWqYdWqVaV6rdOmTcP27duxbt06nDt3DrVq1UJQUBCePn0KAJg5cyauXLmC33//HVevXsWqVatQpUoVAMDy5cvx22+/YcuWLbh+/To2bNgAHx+fUuVDRFRe7iXdKzrofzj8Z6xy04AttoY5d+8UwKzgobGC3Lp1C0II1KtXr1SnHzduHP7880/4+fnB29sbrVq1QqdOnTBgwADI5fJitzds2DBMnjwZn376KbZt24aaNWuWqtdGIyQkBO+9957WtilTpkh/HzduHA4cOIAtW7agRYsWBbbTtWtXjBkzBgAwffp0fPPNNzh8+DDq1q1b4DHz5s1Du3btADwv7rp164aMjAxYWlpixYoVGD58OIYOHQoAmDVrFv744w+kpKSU6HWmpqZi1apVWLt2Lbp06QIA+PHHHxEWFob/9//+H6ZOnYqYmBg0adIEzZs3BwCtoikmJga1a9dGmzZtIJPJ4O3tXaI8iIgM4Z5K96KKPVWkN6KEPVwvs7Gxwd69e3Hr1i189tlnsLW1xeTJk9GiRQukpaUVu71u3bohJSUFx44dw3//+1+99FIBkAoIjdzcXHzxxRfw8/ODk5MTbG1tceDAAcTExBTaTqNGjaS/y2QyKJVK6VYtuhyjuZ2L5pjr16/nKeIKK+qK8s8//yA7OxutW7eWtpmbm6NFixa4evUqAGD06NHYtGkTGjdujGnTpuHEiRNS7JAhQxAVFYW6deti/Pjx+OOPP0qcCxFReWNP1avA1Pp5j5Ghzl0CtWvXhkwm02kyui5q1qyJmjVr4qOPPsKnn36KOnXqYPPmzVIPjK7MzMwwcOBAzJ49G6dOncLOnTv1kt/LQ5yLFy/Gt99+i2XLlsHPzw82NjYICQmRJtUX5OUJ7jKZDGq1WudjNItlFnVMWerSpQvu3r2Lffv2ISwsDB06dEBwcDC+/vprNG3aFNHR0fj9999x8OBB9O7dG4GBgdi2bZvB8iUi0hV7ql4FMtnzIThDPEq4orWTkxOCgoIQGhqK1NTUPPsTExNL/Hb4+PjA2to633Z1MWzYMBw9ehQ9evSAo6NjifMozPHjx9GjRw98+OGH8Pf3R40aNXDjxo0yOVdh6tatqzWJHECe58VRs2ZNWFhY4Pjx49K27OxsnDlzBg0aNJC2ubi4YPDgwfjll1+wbNkyrQn3CoUCffr0wY8//ojNmzdj+/bt0nwsIiJjVpyiij1VpFehoaFo3bo1WrRogblz56JRo0bIyclBWFgYVq1aJQ0XAcCDBw/yrIvk7e2Nb7/9FmlpaejatSu8vb2RmJiI5cuXIzs7Gx07dixRXvXr18fjx4/L9N6KtWvXxrZt23DixAk4Ojpi6dKliI+P1yo8ysO4ceMwYsQING/eHK+//jo2b96Mv//+GzVq1Cjy2PwmyPv6+mL06NGYOnUqnJycUK1aNSxatAhpaWkYPnw4gOfztpo1awZfX19kZmZiz549qF+/PgBg6dKlcHd3R5MmTWBiYoKtW7dCqVTqfOECEZEhcfiPDKZGjRo4d+4c5s2bh8mTJyM2NhYuLi5o1qxZnivQvv76a3z99dda29avX4927dohNDQUgwYNQnx8PBwdHdGkSRP88ccfhU7eLoqzs3OJj9XFZ599htu3byMoKAjW1tYYOXIkevbsiaSkpDI978sGDBiA27dvY8qUKcjIyEDv3r0xZMiQIq9CBKC1npfGvXv38NVXX0GtVmPgwIFITk5G8+bNceDAAanXz8LCAjNmzMCdO3dgZWWFN954Q1p01c7ODosWLcLNmzdhamqK1157Dfv27YOJCTvKicj4FaenSib0NbuYiqRSqWBvb4+kpCRpEUmNjIwMREdHo3r16rC0tDRQhvSq6tixI5RKJdavX2/oVIrE3wUiMhbZudmQfymHyBDAV8j3+/tF7KkiesWkpaVh9erVCAoKgqmpKTZu3IiDBw9KK9ITEZFuHiY/hICAmYkZcpBTZDz734leMTKZDPv27UPbtm3RrFkz7N69G9u3b0dgYKChUyMiqlA0Q39VFVV1imdPFdErxsrKCgcPHjR0GkREFZ5mknpVRVXcxd0i49lTRURERJSP+6r7AABPO0+d4llUEREREeVDGv6z0234z6BF1YIFC/Daa6/Bzs4Orq6u6NmzZ551ctq3bw+ZTKb1GDVqlFZMTEwMunXrBmtra7i6umLq1KnIydGeUHbkyBE0bdoUcrkctWrVwtq1a/PkExoaCh8fH1haWqJly5Z5LkHPyMhAcHAwnJ2dYWtri169eiE+Pl4/bwYREREZleLOqTJoUXX06FEEBwfj5MmTCAsLQ3Z2Njp16pRn1ewRI0YgNjZWeixatEjal5ubi27duiErKwsnTpzAunXrsHbtWsyaNUuKiY6ORrdu3fDmm28iKioKISEh+Oijj3DgwAEpZvPmzZg0aRJmz56Nc+fOwd/fH0FBQVr3YJs4cSJ2796NrVu34ujRo3j48GGeG+oSERHRq0Ezp8pTodvwH4QRSUhIEADE0aNHpW3t2rUTEyZMKPCYffv2CRMTExEXFydtW7VqlVAoFCIzM1MIIcS0adOEr6+v1nF9+vQRQUFB0vMWLVqI4OBg6Xlubq7w8PAQCxYsEEIIkZiYKMzNzcXWrVulmKtXrwoAIiIiQqfXl5SUJACIpKSkPPvS09PFlStXRHp6uk5tEb2q+LtARMbCdbGrwByIP2/8WeD394uMak6VZuVpJycnre0bNmxAlSpV0LBhQ8yYMQNpaWnSvoiICPj5+cHNzU3aFhQUBJVKhcuXL0sxL19OHhQUhIiICABAVlYWIiMjtWJMTEwQGBgoxURGRiI7O1srpl69eqhWrZoU87LMzEyoVCqtBxERERm/zJxMJKQ+H62qEHOqXqRWqxESEoLWrVujYcOG0vb+/fvjl19+weHDhzFjxgysX78eH374obQ/Li5Oq6ACID2Pi4srNEalUiE9PR2PHz9Gbm5uvjEvtmFhYZHnfmUvxrxswYIFsLe3lx5eXl7FeEeoolq7dm2x72vXvn17hISElEk+RERUfJor/yzNLOFk5VRE9HNGU1QFBwfj0qVL0v3CNEaOHImgoCD4+flhwIAB+Pnnn7Fz5078888/BspUdzNmzEBSUpL0uHdP9/sHVRRDhgxBz549tbbFxcVh3LhxqFGjBuRyOby8vNC9e3eEh4dLMT4+PtKFB9bW1vDz88NPP/2k1c6RI0cgk8ng6+uL3NxcrX0ODg5aFxto2jt58qRWXEhICNq3b59v7nPmzMlzEcTLj5Lo06cPbty4UaxjduzYgS+++KJE5ysOFm9ERLrRTFL3Unjp/H1gFEXV2LFjsWfPHhw+fBienoVPBmvZsiUA4NatWwAApVKZ5wo8zXOlUllojEKhgJWVFapUqQJTU9N8Y15sIysrC4mJiQXGvEwul0OhUGg9XnV37txBs2bNcOjQISxevBgXL17E/v378eabbyI4OFgrdu7cuYiNjcWlS5fw4YcfYsSIEfj999/ztHn79m38/PPPRZ7b0tIS06dP1znXKVOmaF0A4enpKeWkebwoKytLp3atrKzg6uqqcx7A8yFvOzu7Yh1DRERlRzNJ3cte91EmgxZVQgiMHTsWO3fuxKFDh1C9evUij4mKigIAuLu7AwACAgJw8eJFrav0wsLCoFAo0KBBAynmxV4STUxAQAAAwMLCAs2aNdOKUavVCA8Pl2KaNWsGc3NzrZjr168jJiZGiiFgzJgxkMlkOH36NHr16oU6derA19cXkyZNytOLZGdnB6VSiRo1amD69OlwcnLK9/5048aNw+zZs5GZmVnouUeOHImTJ09i3759OuVqa2sLpVIpPUxNTaWclEol+vbti7FjxyIkJARVqlRBUFAQAGDp0qXw8/ODjY0NvLy8MGbMGKSkpEjtvjz8N2fOHDRu3Bjr16+Hj48P7O3t0bdvXyQnJ0sxL/cg+fj4YP78+Rg2bBjs7OxQrVo1/PDDD1r5nzhxAo0bN4alpSWaN2+OXbt2QSaTSb8jJbF9+3b4+vpCLpfDx8cHS5Ys0dq/cuVK1K5dG5aWlnBzc8P7778v7du2bRv8/PxgZWUFZ2dnBAYG5rmSl4ioonixp0pXBi2qgoOD8csvv+DXX3+FnZ0d4uLiEBcXh/T0dADAP//8gy+++AKRkZG4c+cOfvvtNwwaNAht27ZFo0aNAACdOnVCgwYNMHDgQFy4cAEHDhzAZ599huDgYMjlcgDAqFGjcPv2bUybNg3Xrl3DypUrsWXLFkycOFHKZdKkSfjxxx+xbt06XL16FaNHj0ZqaiqGDh0KALC3t8fw4cMxadIkHD58GJGRkRg6dCgCAgLQqlUrvb83QgikZqUa5CGEKFHOT58+xf79+xEcHAwbG5s8+wuaZ6RWq7F9+3Y8e/YMFhYWefaHhIQgJycHK1asKPT81atXx6hRozBjxgyo1eoSvYaXrVu3DhYWFjh+/DhWr14N4PlFDMuXL8fly5exbt06HDp0CNOmTSu0nX/++Qe7du3Cnj17sGfPHhw9ehRfffVVoccsWbIEzZs3x/nz5zFmzBiMHj1aWsdNpVKhe/fu8PPzw7lz5/DFF18Uq5cuP5GRkejduzf69u2LixcvYs6cOZg5c6Y0zHr27FmMHz8ec+fOxfXr17F//360bdsWABAbG4t+/fph2LBhuHr1Ko4cOYL33nuvxD9LRESGJvVUFaOoMui9/1atWgUAeea8rFmzBkOGDIGFhQUOHjyIZcuWITU1FV5eXujVqxc+++wzKdbU1BR79uzB6NGjERAQABsbGwwePBhz586VYqpXr469e/di4sSJ+Pbbb+Hp6YmffvpJ6nkAns+DefToEWbNmoW4uDg0btwY+/fv15q8/s0338DExAS9evVCZmYmgoKCsHLlyjJ5b9Ky02C7wLZM2i5KyowU2FjkLYqKcuvWLQghUK9ePZ3ip0+fjs8++wyZmZnIycmBk5MTPvroozxx1tbWmD17Nv7zn/9gxIgRsLe3L7DNzz77DGvWrMGGDRswcODAYr+Gl9WuXVtrXTQAeXqUvvzyS4waNarQnwW1Wo21a9dKQ3wDBw5EeHg45s2bV+AxXbt2xZgxYwA8f6+++eYbHD58GHXr1sWvv/4KmUyGH3/8EZaWlmjQoAEePHiAESNGlPi1Ll26FB06dMDMmTMBAHXq1MGVK1ewePFiDBkyBDExMbCxscHbb78NOzs7eHt7o0mTJgCeF1U5OTl477334O3tDQDw8/MrcS5ERIYm9VQVY/jPoEVVUf+L9fLywtGjR4tsx9vbu8ghn/bt2+P8+fOFxowdOxZjx44tcL+lpSVCQ0MRGhpaZE6VUXF7JaZOnYohQ4YgNjYWU6dOxZgxY1CrVq18Y4cPH44lS5Zg4cKFmD9/foFturi4YMqUKZg1axb69OlTrHzy06xZszzbDh48iAULFuDatWtQqVTIyclBRkYG0tLSYG1tnW87Pj4+WnOm3N3dtYas86PpjQUAmUwGpVIpHXP9+nU0atQIlpaWUkyLFi2K9dpedvXqVfTo0UNrW+vWrbFs2TLk5uaiY8eO8Pb2Ro0aNdC5c2d07twZ7777LqytreHv748OHTrAz88PQUFB6NSpE95//304OjqWKiciIkMpyfCfQYsqKpi1uTVSZqQUHVhG5y6J2rVrQyaT4dq1azrFV6lSBbVq1UKtWrWwdetW+Pn5oXnz5tJcuBeZmZlh3rx5GDJkSKGFL/B8KHflypV66UV8eRjzzp07ePvttzF69GjMmzcPTk5O+OuvvzB8+HBkZWUVWFSZm5trPZfJZEUOUZbkmLJkZ2eHc+fO4ciRI/jjjz8wa9YszJkzB2fOnIGDgwPCwsJw4sQJ/PHHH1ixYgU+/fRTnDp1Sqe5kkRExqbCTVSngslkMthY2BjkUdKlBJycnBAUFITQ0NB8Jyi/fOXki7y8vNCnTx/MmDGjwJgPPvgAvr6++PzzzwvNw9bWFjNnzsS8efO0JoPrQ2RkJNRqNZYsWYJWrVqhTp06ePjwoV7PoYu6devi4sWLWpP3z5w5U6o269evj+PHj2ttO378OOrUqQNTU1MAz4vbwMBALFq0CH///Tfu3LmDQ4cOAXj+M9u6dWt8/vnnOH/+PCwsLLBz585S5UREZAipWal4lvEMQAWaqE6vntDQUOTm5qJFixbYvn07bt68iatXr2L58uVFXiU5YcIE7N69G2fPni0w5quvvsJ///vfIq8qGzlyJOzt7fHrr7+W6HUUpFatWsjOzsaKFStw+/ZtrF+/XprAXp769+8PtVqNkSNH4urVqzhw4AC+/vprACiyKH706BGioqK0HvHx8Zg8eTLCw8PxxRdf4MaNG1i3bh2+++47TJkyBQCwZ88eLF++HFFRUbh79y5+/vlnqNVq1K1bF6dOncL8+fNx9uxZxMTEYMeOHXj06BHq169f5u8FEZG+aYb+7CzsYG9Z8Dzel7GoIr2qUaMGzp07hzfffBOTJ09Gw4YN0bFjR4SHh0sXJhSkQYMG6NSpk9bNsF/21ltv4a233kJOTk6hbZmbm+OLL75ARkZGiV5HQfz9/bF06VIsXLgQDRs2xIYNG7BgwQK9nkMXCoUCu3fvRlRUFBo3boxPP/1Uet9enGeVn19//RVNmjTRevz4449o2rQptmzZgk2bNqFhw4aYNWsW5s6diyFDhgB4fvXmjh078NZbb6F+/fpYvXo1Nm7cCF9fXygUChw7dgxdu3ZFnTp18Nlnn2HJkiXo0qVLWb8VRER6V5KhPwCQCV7zXG5UKhXs7e2RlJSUZyHQjIwMREdHo3r16kV+KRLlZ8OGDRg6dCiSkpJgZWVl6HRKjL8LRGRo/z3/Xwz/bTiCagZh/4f7C/3+fhEnqhNVUD///DNq1KiBqlWr4sKFC5g+fTp69+5doQsqIiJjoLnvX3HmUwEsqogqrLi4OGldNXd3d3zwwQeFrntFRES6KenwH4sqogpq2rRpRa7kTkRExVeSNaoATlQnIiIi0lKS1dQBFlVGh9cNUGXH3wEiMrSS3PcPYFFlNDSrZ6elpRk4EyLD0vwOvLyiPBFReUjKSEJy1vOFoz0VnsU6lnOqjISpqSkcHByke7tZW1uXeGVzoopICIG0tDQkJCTAwcFBWsWdiKg8aYb+HC0dYWNhU0S0NhZVRkSpVAJAkTfaJXqVOTg4SL8LRETlraRX/gEsqoyKTCaDu7s7XF1dkZ2dbeh0iMqdubk5e6iIyKBKeuUfwKLKKJmamvKLhYiIyABKOkkd4ER1IiIiIklJl1MAWFQRERERSUoz/MeiioiIiOh/SjNRnUUVEREREZ4v7cKeKiIiIqJSepL+BBk5GQCKv/AnwKKKiIiICMC/Q3+uNq6Qm8mLfTyLKiIiIiKUbpI6wKKKiIiICEDpJqkDLKqIiIiIALCnioiIiEgv7qvuA2BRRURERFQqpVlNHWBRRURERASgdPf9A1hUEREREUEt1P8O/7GnioiIiKhkElITkK3OhonMBO627iVqg0UVERERVXqaoT+lrRLmpuYlaoNFFREREVV6pV1OAWBRRURERFTqhT8BFlVERERE7KkiIiIi0gcWVURERER6wOE/IiIiIj1gTxURERFRKeWoc/Aw+SEA9lQRERERlVhscizUQg0zEzO42biVuB0WVURERFSpaYb+qtpVhamJaYnbYVFFRERElZo+JqkDLKqIiIioktPHJHWARRURERFVclJPFYsqIiIiopK7n3wfAIf/iIiIiEqFPVVEREREeiDNqWJPFREREVHJZOVmIT4lHgB7qoiIiIhK7IHqAQQELM0sUcW6SqnaYlFFRERElZZm6M9T4QmZTFaqtlhUERERUaWlmaTuqfAsdVssqoiIiKjS0tfCnwCLKiIiIqrE9LWcAsCiioiIiCoxfS2nALCoIiIiokrslRn+W7BgAV577TXY2dnB1dUVPXv2xPXr17ViMjIyEBwcDGdnZ9ja2qJXr16Ij4/XiomJiUG3bt1gbW0NV1dXTJ06FTk5OVoxR44cQdOmTSGXy1GrVi2sXbs2Tz6hoaHw8fGBpaUlWrZsidOnTxc7FyIiIqo4pOG/it5TdfToUQQHB+PkyZMICwtDdnY2OnXqhNTUVClm4sSJ2L17N7Zu3YqjR4/i4cOHeO+996T9ubm56NatG7KysnDixAmsW7cOa9euxaxZs6SY6OhodOvWDW+++SaioqIQEhKCjz76CAcOHJBiNm/ejEmTJmH27Nk4d+4c/P39ERQUhISEBJ1zISIiooojLTsNT9KfANBPTxWEEUlISBAAxNGjR4UQQiQmJgpzc3OxdetWKebq1asCgIiIiBBCCLFv3z5hYmIi4uLipJhVq1YJhUIhMjMzhRBCTJs2Tfj6+mqdq0+fPiIoKEh63qJFCxEcHCw9z83NFR4eHmLBggU651KUpKQkAUAkJSXpFE9ERERl5/rj6wJzIGzm2Qi1Wl1gnK7f30Y1pyopKQkA4OTkBACIjIxEdnY2AgMDpZh69eqhWrVqiIiIAABERETAz88Pbm5uUkxQUBBUKhUuX74sxbzYhiZG00ZWVhYiIyO1YkxMTBAYGCjF6JLLyzIzM6FSqbQeREREZBxeHPor7cKfgBFNVFer1QgJCUHr1q3RsGFDAEBcXBwsLCzg4OCgFevm5oa4uDgp5sWCSrNfs6+wGJVKhfT0dDx+/Bi5ubn5xrzYRlG5vGzBggWwt7eXHl5eeuhaJCIiIr3Q5yR1wIiKquDgYFy6dAmbNm0ydCp6M2PGDCQlJUmPe/fuGTolIiIi+h99rlEFAGZ6aaWUxo4diz179uDYsWPw9Px3mXilUomsrCwkJiZq9RDFx8dDqVRKMS9fpae5Iu/FmJev0ouPj4dCoYCVlRVMTU1hamqab8yLbRSVy8vkcjnkcnkx3gkiIiIqL/pcowowcE+VEAJjx47Fzp07cejQIVSvXl1rf7NmzWBubo7w8HBp2/Xr1xETE4OAgAAAQEBAAC5evKh1lV5YWBgUCgUaNGggxbzYhiZG04aFhQWaNWumFaNWqxEeHi7F6JILERERVRz6Hv4z6NV/o0ePFvb29uLIkSMiNjZWeqSlpUkxo0aNEtWqVROHDh0SZ8+eFQEBASIgIEDan5OTIxo2bCg6deokoqKixP79+4WLi4uYMWOGFHP79m1hbW0tpk6dKq5evSpCQ0OFqamp2L9/vxSzadMmIZfLxdq1a8WVK1fEyJEjhYODg9ZVhUXlUhRe/UdERGQ8Gq5sKDAH4sCtA4XG6fr9bdCiCkC+jzVr1kgx6enpYsyYMcLR0VFYW1uLd999V8TGxmq1c+fOHdGlSxdhZWUlqlSpIiZPniyys7O1Yg4fPiwaN24sLCwsRI0aNbTOobFixQpRrVo1YWFhIVq0aCFOnjyptV+XXArDooqIiMh42C+wF5gDcSXhSqFxun5/y4QQQj99XlQUlUoFe3t7JCUlQaFQGDodIiKiSis5MxmKr55/FyfPSIathW2Bsbp+fxvN1X9ERERE5UUzn8rB0qHQgqo4WFQRERFRpaPv5RQAFlVERERUCWl6qjwVnkVE6o5FFREREVU67KkiIiIi0gN9L/wJsKgiIiKiSkjvC3+CRRURERFVQtLwH3uqiIiIiEpGCMGeKiIiIqLSepbxDGnZaQB49R8RERFRiWmG/qpYV4GVuZXe2mVRRURERJVKWQz9ASyqiIiIqJIpi0nqAIsqIiIiqmTYU0VERESkByyqiIiIiPSAw39EREREenBfdR8Ae6qIiIiISkwI8W9RxZ4qIiIiopJ5lPYImbmZkEGGqnZV9do2iyoiIiKqNDTzqZS2Spibmuu1bRZVREREVGlIV/7peegPYFFFRERElYh05Z+eJ6kDLKqIiIioEtH0VOnzRsoaLKqIiIio0iirhT8BFlVERERUiZTVwp8AiyoiIiKqRNhTRURERFRKuepcPFA9AMCeKiIiIqISi0uJQ67IhanMFO627npvn0UVERERVQqaoT8POw+YmpjqvX0WVURERFQplOUkdYBFFREREVUSZTlJHWBRRURERJVEWa6mDrCoIiIiokqiLO/7B7CoIiIiokqCw39EREREesCJ6kRERESllJ2bjbiUOADsqSIiIiIqsYfJDyEgYGFqARcblzI5B4sqIiIieuVp5lN5KjxhIiub8qfYra5btw579+6Vnk+bNg0ODg54/fXXcffuXb0mR0RERKQPZb2cAlCComr+/PmwsrICAERERCA0NBSLFi1ClSpVMHHiRL0nSERERFRaZb2cAgCYFfeAe/fuoVatWgCAXbt2oVevXhg5ciRat26N9u3b6zs/IiIiolIzyp4qW1tbPHnyBADwxx9/oGPHjgAAS0tLpKen6zc7IiIiIj14cU5VWSl2T1XHjh3x0UcfoUmTJrhx4wa6du0KALh8+TJ8fHz0nR8RERFRqZX1wp9ACXqqQkNDERAQgEePHmH79u1wdnYGAERGRqJfv356T5CIiIiotMp64U8AkAkhRJm1TlpUKhXs7e2RlJQEhUJh6HSIiIgqhYycDFjNe36R3eOpj+Fs7Vys43X9/i52T9X+/fvx119/Sc9DQ0PRuHFj9O/fH8+ePStuc0RERERl6r7qPgDAyswKTlZOZXaeYhdVU6dOhUqlAgBcvHgRkydPRteuXREdHY1JkybpPUEiIiKi0nhx6E8mk5XZeYo9UT06OhoNGjQAAGzfvh1vv/025s+fj3PnzkmT1omIiIiMRXlMUgdK0FNlYWGBtLQ0AMDBgwfRqVMnAICTk5PUg0VERERkLMpjkjpQgp6qNm3aYNKkSWjdujVOnz6NzZs3AwBu3LgBT8+yW/uBiIiIqCSMtqfqu+++g5mZGbZt24ZVq1ahatWqAIDff/8dnTt31nuCRERERKVRXkVVsXuqqlWrhj179uTZ/s033+glISIiIiJ9MtrhPwDIzc3Frl27cPXqVQCAr68v3nnnHZiamuo1OSIiIqLSMtrhv1u3bqF+/foYNGgQduzYgR07duDDDz+Er68v/vnnn2K1dezYMXTv3h0eHh6QyWTYtWuX1v4hQ4ZAJpNpPV4eYnz69CkGDBgAhUIBBwcHDB8+HCkpKVoxf//9N9544w1YWlrCy8sLixYtypPL1q1bUa9ePVhaWsLPzw/79u3T2i+EwKxZs+Du7g4rKysEBgbi5s2bxXq9REREVL5SslKQmJEIoOx7qopdVI0fPx41a9bEvXv3cO7cOZw7dw4xMTGoXr06xo8fX6y2UlNT4e/vj9DQ0AJjOnfujNjYWOmxceNGrf0DBgzA5cuXERYWhj179uDYsWMYOXKktF+lUqFTp07w9vZGZGQkFi9ejDlz5uCHH36QYk6cOIF+/fph+PDhOH/+PHr27ImePXvi0qVLUsyiRYuwfPlyrF69GqdOnYKNjQ2CgoKQkZFRrNdMRERE5Uez8KdCroBCXsZ3MxHFZG1tLf7+++8826OiooSNjU1xm5MAEDt37tTaNnjwYNGjR48Cj7ly5YoAIM6cOSNt+/3334VMJhMPHjwQQgixcuVK4ejoKDIzM6WY6dOni7p160rPe/fuLbp166bVdsuWLcXHH38shBBCrVYLpVIpFi9eLO1PTEwUcrlcbNy4UefXmJSUJACIpKQknY8hIiKikvvj1h8CcyB8Q31L3Iau39/F7qmSy+VITk7Osz0lJQUWFhalLvJeduTIEbi6uqJu3boYPXo0njx5Iu2LiIiAg4MDmjdvLm0LDAyEiYkJTp06JcW0bdtWK7egoCBcv35duq1OREQEAgMDtc4bFBSEiIgIAM8XPI2Li9OKsbe3R8uWLaUYIiIiMj7SfKoyHvoDSjD89/bbb2PkyJE4deoUhBAQQuDkyZMYNWoU3nnnHb0m17lzZ/z8888IDw/HwoULcfToUXTp0gW5ubkAgLi4OLi6umodY2ZmBicnJ8TFxUkxbm5uWjGa50XFvLj/xePyi8lPZmYmVCqV1oOIiIjKj3TlXxlPUgdKcPXf8uXLMXjwYAQEBMDc3BwAkJOTg3feeQfLli3Ta3J9+/aV/u7n54dGjRqhZs2aOHLkCDp06KDXc5WFBQsW4PPPPzd0GkRERJVWeV35B5Sgp8rBwQH/93//hxs3bmDbtm3Ytm0brl+/jp07d8LBwaEMUvxXjRo1UKVKFdy6dQsAoFQqkZCQoBWTk5ODp0+fQqlUSjHx8fFaMZrnRcW8uP/F4/KLyc+MGTOQlJQkPe7du1es10tERESloymqPBVlf9eXYhdVGrVq1UL37t3RvXt31KpVC3///XeZzKl60f379/HkyRO4u7sDAAICApCYmIjIyEgp5tChQ1Cr1WjZsqUUc+zYMWRnZ0sxYWFhqFu3LhwdHaWY8PBwrXOFhYUhICAAAFC9enUolUqtGJVKhVOnTkkx+ZHL5VAoFFoPIiIiKj/ltfAnUIqi6mVCCGmuk65SUlIQFRWFqKgoAM8nhEdFRSEmJgYpKSmYOnUqTp48iTt37iA8PBw9evRArVq1EBQUBACoX78+OnfujBEjRuD06dM4fvw4xo4di759+8LDwwMA0L9/f1hYWGD48OG4fPkyNm/ejG+//RaTJk2S8pgwYQL279+PJUuW4Nq1a5gzZw7Onj2LsWPHAgBkMhlCQkLw5Zdf4rfffsPFixcxaNAgeHh4oGfPnqV/84iIiEjvhBDlOvxX7CUVChIVFSVMTEyKdczhw4cFgDyPwYMHi7S0NNGpUyfh4uIizM3Nhbe3txgxYoSIi4vTauPJkyeiX79+wtbWVigUCjF06FCRnJysFXPhwgXRpk0bIZfLRdWqVcVXX32VJ5ctW7aIOnXqCAsLC+Hr6yv27t2rtV+tVouZM2cKNzc3IZfLRYcOHcT169eL9Xq5pAIREVH5eZb+TGAOBOZApGallrgdXb+/ZUIIoY/i7MKFC2jatGmxe6sqE5VKBXt7eyQlJXEokIiIqIxdjL+IRqsbwcnKCU+mPSn6gALo+v2t89V/RS0HkN/aVURERESGUq5DfyhGUeXg4ACZTFbgfiFEofuJiIiIylN5TlIHilFUHT58uCzzICIiItIro+2pateuXVnmQURERKRX5V1U6W1JBSIiIiJjUt7DfyyqiIiI6JXEnioiIiKiUhJC4L7qPgD2VBERERGV2OO0x8jIyQAAVLWrWi7nZFFFRERErxxNL5WbjRvkZvJyOafOV/9pvPvuu/muRyWTyWBpaYlatWqhf//+qFu3rl4SJCIiIiouaT5VOQ39ASXoqbK3t8ehQ4dw7tw5yGQyyGQynD9/HocOHUJOTg42b94Mf39/HD9+vCzyJSIiIiqSdOVfOU1SB0rQU6VUKtG/f3989913MDF5XpOp1WpMmDABdnZ22LRpE0aNGoXp06fjr7/+0nvCREREREUp7yv/gBL0VP2///f/EBISIhVUAGBiYoJx48bhhx9+gEwmw9ixY3Hp0iW9JkpERESkqwox/JeTk4Nr167l2X7t2jXk5uYCACwtLXkfQCIiIjKYCjH8N3DgQAwfPhz/+c9/8NprrwEAzpw5g/nz52PQoEEAgKNHj8LX11e/mRIRERHpSNNT5anwLLdzFruo+uabb+Dm5oZFixYhPj4eAODm5oaJEydi+vTpAIBOnTqhc+fO+s2UiIiISAdqocYD1QMA5Tv8JxNCiJIerFKpAAAKhUJvCb3KVCoV7O3tkZSUxPeMiIiojMQmx8JjqQdMZCbI/CwTZibF7kPSouv3d6nOwsKAiIiIjI1m6M/d1r3UBVVxFHuienx8PAYOHAgPDw+YmZnB1NRU60FERERkSNIk9XIc+gNK0FM1ZMgQxMTEYObMmXB3d+dVfkRERGRUDLFGFVCCouqvv/7Cn3/+icaNG5dBOkRERESlY4jlFIASDP95eXmhFHPbiYiIiMqUIRb+BEpQVC1btgyffPIJ7ty5UwbpEBEREZVOhRn+69OnD9LS0lCzZk1YW1vD3Nxca//Tp0/1lhwRERFRcVWYierLli0rgzSIiIiISi9HnYPYlFgAFaCnavDgwWWRBxEREVGpPUx+CLVQw9zEHG62buV6bp2KKpVKJS30qVlFvSBcEJSIiIgMRTP0V1VRFSayYk8dLxWdiipHR0fExsbC1dUVDg4O+a5NJYSATCZDbm6u3pMkIiIi0sV91X0A5T/0B+hYVB06dAhOTk4AgMOHD5dpQkREREQlZajlFAAdi6p27drl+3ciIiIiY2KohT+BEt5QOTExEadPn0ZCQgLUarXWvkGDBuklMSIiIqLiMtQaVUAJiqrdu3djwIABSElJgUKh0JpfJZPJWFQRERGRwRhy+K/Y0+InT56MYcOGISUlBYmJiXj27Jn04MKfREREZEiGHP4rdlH14MEDjB8/HtbW1mWRDxEREVGJZOZkIj41HgDgqfAs9/MXu6gKCgrC2bNnyyIXIiIiohJ7kPwAAGBpZokq1lXK/fzFnlPVrVs3TJ06FVeuXIGfn1+ee/+98847ekuOiIiISFeaoT9PhWe+a2qWtWIXVSNGjAAAzJ07N88+Lv5JREREhmLIK/+AEhRVLy+hQERERGQMpEnqBrjyDyjBnCoiIiIiY1QheqqWL1+OkSNHwtLSEsuXLy80dvz48XpJjIiIiKg4KkRR9c0332DAgAGwtLTEN998U2CcTCZjUUVEREQGYejhP52Kqujo6Hz/TkRERGQsDN1TxTlVREREVOGlZafhafrzO7sYdU/Vy+7fv4/ffvsNMTExyMrK0tq3dOlSvSRGREREpCvN0J+thS3s5fYGyaHYRVV4eDjeeecd1KhRA9euXUPDhg1x584dCCHQtGnTssiRiIiIqFAvDv0ZYuFPoATDfzNmzMCUKVNw8eJFWFpaYvv27bh37x7atWuHDz74oCxyJCIiIirUfdV9AIYb+gNKUFRdvXoVgwYNAgCYmZkhPT0dtra2mDt3LhYuXKj3BImIiIiKIl35Z6BJ6kAJiiobGxtpHpW7uzv++ecfad/jx4/1lxkRERGRjgx95R9QgjlVrVq1wl9//YX69euja9eumDx5Mi5evIgdO3agVatWZZEjERERUaGkosqAw3/FLqqWLl2KlJQUAMDnn3+OlJQUbN68GbVr1+aVf0RERGQQxjD8V6yiKjc3F/fv30ejRo0APB8KXL16dZkkRkRERKQrY+ipKtacKlNTU3Tq1AnPnj0rq3yIiIiIikWVqYIqUwUA8FR4GiyPYk9Ub9iwIW7fvl0WuRAREREVm2boz8HSAbYWtgbLo9hF1ZdffokpU6Zgz549iI2NhUql0noUx7Fjx9C9e3d4eHhAJpNh165dWvuFEJg1axbc3d1hZWWFwMBA3Lx5Uyvm6dOnGDBgABQKBRwcHDB8+HBpzpfG33//jTfeeAOWlpbw8vLCokWL8uSydetW1KtXD5aWlvDz88O+ffuKnQsRERGVP2O48g8oRlE1d+5cpKamomvXrrhw4QLeeecdeHp6wtHREY6OjnBwcICjo2OxTp6amgp/f3+Ehobmu3/RokVYvnw5Vq9ejVOnTsHGxgZBQUHIyMiQYgYMGIDLly8jLCwMe/bswbFjxzBy5Ehpv0qlQqdOneDt7Y3IyEgsXrwYc+bMwQ8//CDFnDhxAv369cPw4cNx/vx59OzZEz179sSlS5eKlQsRERGVP2mSugHnUwEAhI5MTExEfHy8OHLkSKGPkgIgdu7cKT1Xq9VCqVSKxYsXS9sSExOFXC4XGzduFEIIceXKFQFAnDlzRor5/fffhUwmEw8ePBBCCLFy5Urh6OgoMjMzpZjp06eLunXrSs979+4tunXrppVPy5Ytxccff6xzLrpISkoSAERSUpLOxxAREVHhZh6aKTAH4uPdH5dJ+7p+f+t89Z8QAgDQrl27MinuXhYdHY24uDgEBgZK2+zt7dGyZUtERESgb9++iIiIgIODA5o3by7FBAYGwsTEBKdOncK7776LiIgItG3bFhYWFlJMUFAQFi5ciGfPnsHR0RERERGYNGmS1vmDgoKk4UhdcslPZmYmMjMzpefFHR4lIiKiolW44T8A5XqDwri4OACAm5ub1nY3NzdpX1xcHFxdXbX2m5mZwcnJSSsmvzZePEdBMS/uLyqX/CxYsAD29vbSw8vLwN2SREREryBjGf4r1jpVderUKbKwevr0aakSepXMmDFDqwdMpVKxsCIiItIzY+mpKlZR9fnnn8Pe3r6sctGiVCoBAPHx8XB3d5e2x8fHo3HjxlJMQkKC1nE5OTl4+vSpdLxSqUR8fLxWjOZ5UTEv7i8ql/zI5XLI5XKdXi8REREVnxCiYvZU9e3bN89wW1mpXr06lEolwsPDpcJFpVLh1KlTGD16NAAgICAAiYmJiIyMRLNmzQAAhw4dglqtRsuWLaWYTz/9FNnZ2TA3NwcAhIWFoW7dutLVigEBAQgPD0dISIh0/rCwMAQEBOicCxEREZW/p+lPkZ6TDsCwC38CxZhTVRbzqVJSUhAVFYWoqCgAzyeER0VFISYmBjKZDCEhIfjyyy/x22+/4eLFixg0aBA8PDzQs2dPAED9+vXRuXNnjBgxAqdPn8bx48cxduxY9O3bFx4eHgCA/v37w8LCAsOHD8fly5exefNmfPvtt1rDchMmTMD+/fuxZMkSXLt2DXPmzMHZs2cxduxY6bUXlQsRERGVP83Qn4u1CyzNLA2bjK6XE8pkMhEfH1/KixK1HT58WADI8xg8eLAQ4vlSBjNnzhRubm5CLpeLDh06iOvXr2u18eTJE9GvXz9ha2srFAqFGDp0qEhOTtaKuXDhgmjTpo2Qy+WiatWq4quvvsqTy5YtW0SdOnWEhYWF8PX1FXv37tXar0suReGSCkRERPr127XfBOZANP2+aZmdQ9fvb5kQ/1srgcqcSqWCvb09kpKSoFAoDJ0OERFRhbfyzEoE7wtGj7o9sKvvrjI5h67f38W+TQ0RERGRsbivug/A8Ff+ASyqiIiIqAKTllMw9C1qwKKKiIiIKjBpOQX2VBERERGVHHuqiIiIiEpJLdScU0VERERUWo9SHyErNwsyyOBh52HodFhUERERUcWkGfpT2iphbmpu4GxYVBEREVEFZSz3/NNgUUVEREQVkjRJ3QjmUwEsqoiIiKiCMqblFAAWVURERFRBGdNyCgCLKiIiIqqgOPxHREREpAecqE5ERERUSrnqXDxMfgiAPVVEREREJRabEotckQszEzMobZWGTgcAiyoiIiKqgDRDfx52HjA1MTVwNs+xqCIiIqIKx9gmqQMsqoiIiKgCMrZJ6gCLKiIiIqqA7qvuA2BPFREREVGpcPiPiIiISA+MbTV1gEUVERERVUDGdt8/gEUVERERVTBZuVmIS4kDwJ4qIiIiohJ7mPwQAgJyUzlcrF0MnY6ERRURERFVKJqhP0+FJ2QymYGz+ReLKiIiIqpQNJPUPRWeBs5EG4sqIiIiqlCMceFPgEUVERERVTDGuEYVwKKKiIiIKhgWVURERER6wOE/IiIiIj1gTxURERFRKaVnp+Nx2mMA7KkiIiIiKrH7qvsAAGtzazhaOho4G20sqoiIiKjCeHHoz5gW/gRYVBEREVEFYqyT1AEWVURERFSBGOskdYBFFREREVUgUk8ViyoiIiKikruf/HyiOof/iIiIiEqBPVVEREREeiDNqWJPFREREVHJpGSlIDEjEQB7qoiIiIhKTDP0Zy+3h53czsDZ5MWiioiIiCoEYx76A1hUERERUQWh6anyVHgaOJP8sagiIiKiCsGYF/4EWFQRERFRBWHMyykALKqIiIioguCcKiIiIiI94PAfERERUSkJIf4d/mNPFREREVHJJGYkIjU7FQCv/iMiIiIqMc3Qn7OVM6zNrQ2cTf5YVBEREZHRM/ahP4BFFREREVUAxj5JHTDyomrOnDmQyWRaj3r16kn7MzIyEBwcDGdnZ9ja2qJXr16Ij4/XaiMmJgbdunWDtbU1XF1dMXXqVOTk5GjFHDlyBE2bNoVcLketWrWwdu3aPLmEhobCx8cHlpaWaNmyJU6fPl0mr5mIiIjyMvY1qgAjL6oAwNfXF7GxsdLjr7/+kvZNnDgRu3fvxtatW3H06FE8fPgQ7733nrQ/NzcX3bp1Q1ZWFk6cOIF169Zh7dq1mDVrlhQTHR2Nbt264c0330RUVBRCQkLw0Ucf4cCBA1LM5s2bMWnSJMyePRvnzp2Dv78/goKCkJCQUD5vAhERUSVn7GtUAQCEEZs9e7bw9/fPd19iYqIwNzcXW7dulbZdvXpVABARERFCCCH27dsnTExMRFxcnBSzatUqoVAoRGZmphBCiGnTpglfX1+ttvv06SOCgoKk5y1atBDBwcHS89zcXOHh4SEWLFhQrNeTlJQkAIikpKRiHUdERFTZvbn2TYE5EL9c+KXcz63r97fR91TdvHkTHh4eqFGjBgYMGICYmBgAQGRkJLKzsxEYGCjF1qtXD9WqVUNERAQAICIiAn5+fnBzc5NigoKCoFKpcPnyZSnmxTY0MZo2srKyEBkZqRVjYmKCwMBAKaYgmZmZUKlUWg8iIiIqvorQU2XURVXLli2xdu1a7N+/H6tWrUJ0dDTeeOMNJCcnIy4uDhYWFnBwcNA6xs3NDXFxcQCAuLg4rYJKs1+zr7AYlUqF9PR0PH78GLm5ufnGaNooyIIFC2Bvby89vLyM9weBiIjIWAkhcF91H4Bxz6kyM3QChenSpYv090aNGqFly5bw9vbGli1bYGVlZcDMdDNjxgxMmjRJeq5SqVhYERERFdPjtMfIyMmADDJUVVQ1dDoFMuqeqpc5ODigTp06uHXrFpRKJbKyspCYmKgVEx8fD6VSCQBQKpV5rgbUPC8qRqFQwMrKClWqVIGpqWm+MZo2CiKXy6FQKLQeREREVDyaoT83WzdYmFoYOJuCVaiiKiUlBf/88w/c3d3RrFkzmJubIzw8XNp//fp1xMTEICAgAAAQEBCAixcval2lFxYWBoVCgQYNGkgxL7ahidG0YWFhgWbNmmnFqNVqhIeHSzFERERUdirCcgqAkRdVU6ZMwdGjR3Hnzh2cOHEC7777LkxNTdGvXz/Y29tj+PDhmDRpEg4fPozIyEgMHToUAQEBaNWqFQCgU6dOaNCgAQYOHIgLFy7gwIED+OyzzxAcHAy5XA4AGDVqFG7fvo1p06bh2rVrWLlyJbZs2YKJEydKeUyaNAk//vgj1q1bh6tXr2L06NFITU3F0KFDDfK+EBERVSYVYZI6YORzqu7fv49+/frhyZMncHFxQZs2bXDy5Em4uLgAAL755huYmJigV69eyMzMRFBQEFauXCkdb2pqij179mD06NEICAiAjY0NBg8ejLlz50ox1atXx969ezFx4kR8++238PT0xE8//YSgoCAppk+fPnj06BFmzZqFuLg4NG7cGPv3788zeZ2IiIj0T9NT5WlnnDdS1pAJIYShk6gsVCoV7O3tkZSUxPlVREREOuq/vT82XtqIxR0XY8rrU8r9/Lp+fxv18B8RERFRRbjvH8CiioiIiIycNFHdyOdUsagiIiIio5WrzsWD5AcA2FNFREREVGLxqfHIUefARGYCdzt3Q6dTKBZVREREZLQ0Q38edh4wMzHqRQtYVBEREZHxqiiT1AEWVURERGTEKsokdYBFFRERERkx9lQRERER6QGLKiIiIiI94PAfERERkR7cV90HwJ4qIiIiohLLUecgNiUWAHuqiIiIiErsYfJDqIUa5ibmcLVxNXQ6RWJRRUREREZJM5/KU+EJE5nxlyzGnyERERFVStKVfxVg6A9gUUVERERGSrryrwJMUgdYVBEREZGR0vRUeSo8DZyJblhUERERkVGqSAt/AiyqiIiIyEhVpIU/ARZVREREZKTYU0VERERUSpk5mUhITQDAnioiIiKiEtPcnsbSzBLOVs4GzkY3LKqIiIjI6Lw49CeTyQycjW5YVBEREZHRqWiT1AEWVURERGSEKtokdYBFFRERERmhiraaOsCiioiIiIxQRbvvH8CiioiIiIwQh/+IiIiI9ECzpAJ7qoiIiIhKKC07DU/TnwJgTxURERFRiWkmqdtZ2MHe0t7A2eiORRUREREZlYo4SR1gUUVERERGpiIupwAAZoZOgIiIiCoutVAjPTsd6Tnphf6Zlp1WeMwLcbee3gLAooqIiIgqGLVQY+vlrTj78Oy/xU8RRVJ6zvMCKCs3q8zy8lf6l1nbZYFFFRERUSV28v5JTNg/AacfnC51W+Ym5rAyt4KVmZX0p7W5dZ5t0p+FxFWxroJ23u308ArLD4sqIiKiSuhh8kN8cvATrP97PYDnV9oN8h8EJyun/AsgHYolUxNTA78qw2JRRUREVIlk5GTgm4hvMO/PeUjNTgUADG08FPM7zIfSVmng7Co2FlVERESVgBAC/3f9/zD5j8m4/ew2AKCVZyss77wcr1V9zcDZvRpYVBEREb3iLidcRsiBEBy8fRAA4GHngYWBC9Hfrz9MZFxdSV9YVBEREb2inqY/xZwjc7DyzErkilxYmFpgSsAUzHhjBmwtbA2d3iuHRRUREdErJkedgx8jf8TMwzPxJP0JAKBnvZ5Y0mkJajjWMHB2ry4WVURERK+QI3eOYML+Cfg7/m8AgK+LL5Z1XobAGoEGzuzVx6KKiIjoFXAn8Q6mhk3FtivbAACOlo6Y++ZcjGo+CmYm/LovD3yXiYiIKrDUrFQsPL4Qi08sRkZOBkxkJhjVbBTmvjkXztbOhk6vUmFRRUREVAEJIbDp0iZMOzgN91X3AQDtfdrj287fopFbIwNnVzmxqCIiIqpgIh9GYsL+CTh+7zgAwNveG0s6LcF79d+DTCYzcHaVF4sqIiKiCiIhNQH/Cf8P/nv+vxAQsDa3xow2MzA5YDKszK0MnV6lx6KKiIjIyGXlZmHFqRWYe2wuVJkqAEB/v/5YGLgQngpPA2dHGiyqiIiIjNjvN3/HxAMTcf3JdQBAU/emWN55OVpXa23gzOhlLKqIiIiM0I0nNzDxwETsu7kPAOBq44r5b83HkMZDYGpiauDsKD8sqoiIiIxIUkYSvjj2BZafWo5sdTbMTMwwoeUEzGw7E/aW9oZOjwrBooqIiMgIqIUaa86vwX8O/QcJqQkAgK61u2Jpp6WoW6WugbMjXfDW1MUUGhoKHx8fWFpaomXLljh9+rShUyIiogrueMxxtPixBT7a/RESUhNQx7kO9vbfi73997KgqkBYVBXD5s2bMWnSJMyePRvnzp2Dv78/goKCkJCQYOjUiIioArqvuo8BOwagzZo2iIyNhEKuwNcdv8bF0RfRtXZXQ6dHxSQTQghDJ1FRtGzZEq+99hq+++47AIBarYaXlxfGjRuHTz75pMjjVSoV7O3tcTH6NOzsbMs6XSKqxPT1T7tA6dsRQkBAQC3UEOL5n2qhlraphShg+0t/14pBAdsLO/bf5znqHGSrs//3Zw5y/vfIzs1n2//ictS5/x6Tm3fbv7G5/+4XOcjOfbmdf9tPy06DWqghgwzD/AdhXvtZcLN1K/0HR3qlUqlg7+yBpKQkKBSKAuM4p0pHWVlZiIyMxIwZM6RtJiYmCAwMRERERL7HZGZmIjMzU3quUj1fW8Tv+xaAZdnmS0REFcPrlsByF4FmaeuAfesMnQ7lJ023MBZVOnr8+DFyc3Ph5qb9Pwg3Nzdcu3Yt32MWLFiAzz//PM92uQzgXQSoIuOPb8Wgr89JH+2YyJ63Y4J//3xxmwme/7to8mLMy/v/t62gNora/2KMOQAzGWAue/5FaC57/vzFv2ti8t2WTxsFbivoHACsTAB3U34nvCpYVJWhGTNmYNKkSdJzlUoFLy8vJEx5WGj3IRERERkRlQoY4VFkGIsqHVWpUgWmpqaIj4/X2h4fHw+lUpnvMXK5HHK5PO8OM5vnDyIiIjJ+Zrk6hfHqPx1ZWFigWbNmCA8Pl7ap1WqEh4cjICDAgJkRERGRMWBPVTFMmjQJgwcPRvPmzdGiRQssW7YMqampGDp0qKFTIyIiIgNjUVUMffr0waNHjzBr1izExcWhcePG2L9/f57J60RERFT5cJ2qcqRZp6qodS6IiIjIeOj6/c05VURERER6wKKKiIiISA9YVBERERHpAYsqIiIiIj1gUUVERESkByyqiIiIiPSARRURERGRHrCoIiIiItIDFlVEREREesDb1JQjzeL1KpXKwJkQERGRrjTf20XdhIZFVTlKTk4GAHh5eRk4EyIiIiqu5ORk2NvbF7if9/4rR2q1Gg8fPoSdnR1kMplBc1GpVPDy8sK9e/d4H8KX8L0pGN+bgvG9KRjfm4Lxvcmfsb0vQggkJyfDw8MDJiYFz5xiT1U5MjExgaenp6HT0KJQKIziB9YY8b0pGN+bgvG9KRjfm4LxvcmfMb0vhfVQaXCiOhEREZEesKgiIiIi0gMWVZWUXC7H7NmzIZfLDZ2K0eF7UzC+NwXje1MwvjcF43uTv4r6vnCiOhEREZEesKeKiIiISA9YVBERERHpAYsqIiIiIj1gUUVERESkByyqKpkFCxbgtddeg52dHVxdXdGzZ09cv37d0GkZpa+++goymQwhISGGTsUoPHjwAB9++CGcnZ1hZWUFPz8/nD171tBpGVRubi5mzpyJ6tWrw8rKCjVr1sQXX3xR5P3BXlXHjh1D9+7d4eHhAZlMhl27dmntF0Jg1qxZcHd3h5WVFQIDA3Hz5k3DJFuOCntfsrOzMX36dPj5+cHGxgYeHh4YNGgQHj58aLiEy1FRPzMvGjVqFGQyGZYtW1Zu+RUXi6pK5ujRowgODsbJkycRFhaG7OxsdOrUCampqYZOzaicOXMG33//PRo1amToVIzCs2fP0Lp1a5ibm+P333/HlStXsGTJEjg6Oho6NYNauHAhVq1ahe+++w5Xr17FwoULsWjRIqxYscLQqRlEamoq/P39ERoamu/+RYsWYfny5Vi9ejVOnToFGxsbBAUFISMjo5wzLV+FvS9paWk4d+4cZs6ciXPnzmHHjh24fv063nnnHQNkWv6K+pnR2LlzJ06ePAkPD49yyqyEBFVqCQkJAoA4evSooVMxGsnJyaJ27doiLCxMtGvXTkyYMMHQKRnc9OnTRZs2bQydhtHp1q2bGDZsmNa29957TwwYMMBAGRkPAGLnzp3Sc7VaLZRKpVi8eLG0LTExUcjlcrFx40YDZGgYL78v+Tl9+rQAIO7evVs+SRmJgt6b+/fvi6pVq4pLly4Jb29v8c0335R7brpiT1Ull5SUBABwcnIycCbGIzg4GN26dUNgYKChUzEav/32G5o3b44PPvgArq6uaNKkCX788UdDp2Vwr7/+OsLDw3Hjxg0AwIULF/DXX3+hS5cuBs7M+ERHRyMuLk7r98re3h4tW7ZERESEATMzPklJSZDJZHBwcDB0KganVqsxcOBATJ06Fb6+voZOp0i8oXIlplarERISgtatW6Nhw4aGTscobNq0CefOncOZM2cMnYpRuX37NlatWoVJkybhP//5D86cOYPx48fDwsICgwcPNnR6BvPJJ59ApVKhXr16MDU1RW5uLubNm4cBAwYYOjWjExcXBwBwc3PT2u7m5ibtIyAjIwPTp09Hv379jOZGwoa0cOFCmJmZYfz48YZORScsqiqx4OBgXLp0CX/99ZehUzEK9+7dw4QJExAWFgZLS0tDp2NU1Go1mjdvjvnz5wMAmjRpgkuXLmH16tWVuqjasmULNmzYgF9//RW+vr6IiopCSEgIPDw8KvX7QiWTnZ2N3r17QwiBVatWGTodg4uMjMS3336Lc+fOQSaTGTodnXD4r5IaO3Ys9uzZg8OHD8PT09PQ6RiFyMhIJCQkoGnTpjAzM4OZmRmOHj2K5cuXw8zMDLm5uYZO0WDc3d3RoEEDrW3169dHTEyMgTIyDlOnTsUnn3yCvn37ws/PDwMHDsTEiROxYMECQ6dmdJRKJQAgPj5ea3t8fLy0rzLTFFR3795FWFgYe6kA/Pnnn0hISEC1atWkf5Pv3r2LyZMnw8fHx9Dp5Ys9VZWMEALjxo3Dzp07ceTIEVSvXt3QKRmNDh064OLFi1rbhg4dinr16mH69OkwNTU1UGaG17p16zxLb9y4cQPe3t4Gysg4pKWlwcRE+/+mpqamUKvVBsrIeFWvXh1KpRLh4eFo3LgxAEClUuHUqVMYPXq0YZMzME1BdfPmTRw+fBjOzs6GTskoDBw4MM/c1qCgIAwcOBBDhw41UFaFY1FVyQQHB+PXX3/F//3f/8HOzk6ay2Bvbw8rKysDZ2dYdnZ2eeaW2djYwNnZudLPOZs4cSJef/11zJ8/H71798bp06fxww8/4IcffjB0agbVvXt3zJs3D9WqVYOvry/Onz+PpUuXYtiwYYZOzSBSUlJw69Yt6Xl0dDSioqLg5OSEatWqISQkBF9++SVq166N6tWrY+bMmfDw8EDPnj0Nl3Q5KOx9cXd3x/vvv49z585hz549yM3Nlf5ddnJygoWFhaHSLhdF/cy8XGCam5tDqVSibt265Z2qbgx9+SGVLwD5PtasWWPo1IwSl1T41+7du0XDhg2FXC4X9erVEz/88IOhUzI4lUolJkyYIKpVqyYsLS1FjRo1xKeffioyMzMNnZpBHD58ON9/XwYPHiyEeL6swsyZM4Wbm5uQy+WiQ4cO4vr164ZNuhwU9r5ER0cX+O/y4cOHDZ16mSvqZ+Zlxr6kgkyISrr0LxEREZEecaI6ERERkR6wqCIiIiLSAxZVRERERHrAooqIiIhID1hUEREREekBiyoiIiIiPWBRRURERKQHLKqIiF5y7do1tGrVCpaWltItVYiIisKiiogqrEePHsHCwgKpqanIzs6GjY2NXm7yPHv2bNjY2OD69esIDw/PN2bIkCGv/O1ViKh4WFQRUYUVEREBf39/2NjY4Ny5c9L9wkrrn3/+QZs2beDt7V2hbm6blZVl6BSIKjUWVURUYZ04cQKtW7cGAPz111/S3wujVqsxd+5ceHp6Qi6Xo3Hjxti/f7+0XyaTITIyEnPnzoVMJsOcOXNKlNvSpUvh5+cHGxsbeHl5YcyYMUhJSQEApKamQqFQYNu2bVrH7Nq1CzY2NkhOTgYA3Lt3D71794aDgwOcnJzQo0cP3LlzR4rX9JbNmzcPHh4e0k1mV65cidq1a8PS0hJubm54//33S/QaiKh4zAydABFRccTExKBRo0YAgLS0NJiammLt2rVIT0+HTCaDg4MD+vfvj5UrV+Z7/LfffoslS5bg+++/R5MmTfDf//4X77zzDi5fvozatWsjNjYWgYGB6Ny5M6ZMmQJbW9sS5WliYoLly5ejevXquH37NsaMGYNp06Zh5cqVsLGxQd++fbFmzRqtgkfz3M7ODtnZ2QgKCkJAQAD+/PNPmJmZ4csvv0Tnzp3x999/w8LCAgAQHh4OhUKBsLAwAMDZs2cxfvx4rF+/Hq+//jqePn2KP//8s0SvgYiKydB3dCYiKo7s7GwRHR0tLly4IMzNzcWFCxfErVu3hK2trTh69KiIjo4Wjx49KvB4Dw8PMW/ePK1tr732mhgzZoz03N/fX8yePbvQPAYPHix69Oihc95bt24Vzs7O0vNTp04JU1NT8fDhQyGEEPHx8cLMzEwcOXJECCHE+vXrRd26dYVarZaOyczMFFZWVuLAgQNSDm5ubiIzM1OK2b59u1AoFEKlUumcGxHpB4f/iKhCMTMzg4+PD65du4bXXnsNjRo1QlxcHNzc3NC2bVv4+PigSpUq+R6rUqnw8OHDPMOErVu3xtWrV/Wa58GDB9GhQwdUrVoVdnZ2GDhwIJ48eYK0tDQAQIsWLeDr64t169YBAH755Rd4e3ujbdu2AIALFy7g1q1bsLOzg62tLWxtbeHk5ISMjAz8888/0nn8/PykXisA6NixI7y9vVGjRg0MHDgQGzZskM5JRGWLRRURVSi+vr6wtbXFwIEDcfr0adja2qJDhw64c+cObG1t4evra+gUcefOHbz99tto1KgRtm/fjsjISISGhgLQnkz+0UcfYe3atQCeD/0NHToUMpkMAJCSkoJmzZohKipK63Hjxg30799fasPGxkbr3HZ2djh37hw2btwId3d3zJo1C/7+/khMTCzbF01ELKqIqGLZt28foqKioFQq8csvvyAqKgoNGzbEsmXLEBUVhX379hV4rEKhgIeHB44fP661/fjx42jQoIHecoyMjIRarcaSJUvQqlUr1KlTBw8fPswT9+GHH+Lu3btYvnw5rly5gsGDB0v7mjZtips3b8LV1RW1atXSetjb2xd6fjMzMwQGBmLRokX4+++/cefOHRw6dEhvr4+I8seJ6kRUoXh7eyMuLg7x8fHo0aMHZDIZLl++jF69esHd3b3I46dOnYrZs2ejZs2aaNy4MdasWYOoqChs2LCh2LkkJSUhKipKa5uzszNq1aqF7OxsrFixAt27d8fx48exevXqPMc7Ojrivffew9SpU9GpUyd4enpK+wYMGIDFixejR48e0tWKd+/exY4dOzBt2jSt2Bft2bMHt2/fRtu2beHo6Ih9+/ZBrVZLVwYSUdlhUUVEFc6RI0fw2muvwdLSEn/++Sc8PT11KqgAYPz48UhKSsLkyZORkJCABg0a4LfffkPt2rVLlEeTJk20tg0fPhw//fQTli5dioULF2LGjBlo27YtFixYgEGDBuVpY/jw4fj1118xbNgwre3W1tY4duwYpk+fjvfeew/JycmoWrUqOnToAIVCUWBODg4O2LFjB+bMmYOMjAzUrl0bGzduNIphUaJXnUwIIQydBBFRZbV+/XpMnDgRDx8+1JpwTkQVD3uqiIgMIC0tDbGxsfjqq6/w8ccfs6AiegVwojoRkQEsWrQI9erVg1KpxIwZMwydDhHpAYf/iIiIiPSAPVVEREREesCiioiIiEgPWFQRERER6QGLKiIiIiI9YFFFREREpAcsqoiIiIj0gEUVERERkR6wqCIiIiLSAxZVRERERHrw/wF/jwxlq1AgUAAAAABJRU5ErkJggg==;" vertex="1" parent="1">
          <mxGeometry x="140" y="120" width="479.6" height="365.23" as="geometry" />
        </mxCell>
        <mxCell id="AoGtgX9DV2KB_T8Uw5mt-4" value="" style="rounded=1;whiteSpace=wrap;html=1;fillColor=none;strokeWidth=2;strokeColor=#ff6a00;dashed=1;" vertex="1" parent="1">
          <mxGeometry x="220" y="410" width="250" height="30" as="geometry" />
        </mxCell>
        <mxCell id="AoGtgX9DV2KB_T8Uw5mt-7" value="" style="endArrow=none;html=1;strokeWidth=2;rounded=0;exitX=0;exitY=0;exitDx=0;exitDy=0;entryX=0;entryY=1;entryDx=0;entryDy=0;strokeColor=#ff6a00;dashed=1;" edge="1" parent="1" source="AoGtgX9DV2KB_T8Uw5mt-4" target="AoGtgX9DV2KB_T8Uw5mt-11">
          <mxGeometry width="50" height="50" relative="1" as="geometry">
            <mxPoint x="390" y="350" as="sourcePoint" />
            <mxPoint x="201.1800000000003" y="395.32000000000005" as="targetPoint" />
          </mxGeometry>
        </mxCell>
        <mxCell id="AoGtgX9DV2KB_T8Uw5mt-8" value="" style="endArrow=none;html=1;strokeWidth=2;rounded=0;exitX=1;exitY=0;exitDx=0;exitDy=0;strokeColor=#ff6a00;dashed=1;entryX=1;entryY=1;entryDx=0;entryDy=0;" edge="1" parent="1" source="AoGtgX9DV2KB_T8Uw5mt-4" target="AoGtgX9DV2KB_T8Uw5mt-11">
          <mxGeometry width="50" height="50" relative="1" as="geometry">
            <mxPoint x="390" y="350" as="sourcePoint" />
            <mxPoint x="479" y="395" as="targetPoint" />
          </mxGeometry>
        </mxCell>
        <mxCell id="AoGtgX9DV2KB_T8Uw5mt-11" value="" style="shape=image;imageAspect=0;aspect=fixed;verticalLabelPosition=bottom;verticalAlign=top;image=data:image/png,iVBORw0KGgoAAAANSUhEUgAAAh8AAAGdCAYAAACyzRGfAAAAOXRFWHRTb2Z0d2FyZQBNYXRwbG90bGliIHZlcnNpb24zLjcuMSwgaHR0cHM6Ly9tYXRwbG90bGliLm9yZy/bCgiHAAAACXBIWXMAAA9hAAAPYQGoP6dpAAAtMElEQVR4nO3de3RU9aH28WcyIUMISYBA7gEjIpcEIteI1J7TysKDwMFaMVjURE7XOqvFKvoeV7VdXnitRvS0ywoW0Z4jqRWBXsDqexA5tGBRLgmXyP2iFkJCwj1DCJkkM/v9g2ZKuA/Zs/dcvp+1Zhn2zOz9TLHuJ7/fb/Z2GIZhCAAAwCIxdgcAAADRhfIBAAAsRfkAAACWonwAAABLUT4AAIClKB8AAMBSlA8AAGApygcAALBUrNUH9Pl8qqmpUWJiohwOh9WHBwAA18EwDJ0+fVqZmZmKienY2IXl5aOmpkY5OTlWHxYAAJigqqpK2dnZHdqH5eUjMTFR0rnwSUlJVh8eAABcB7fbrZycHP95vCMsLx9tUy1JSUmUDwAAwowZSyZYcAoAACxF+QAAAJaifAAAAEtRPgAAgKUoHwAAwFKUDwAAYCnKBwAAsBTlAwAAWIryAQAALEX5AAAAlqJ8AAAAS1E+AACApSy/sRwAAAgvGw5t0Btr3zBtf4x8AACAK1r19Sq9W/muafujfAAAgCtaf2i9qfujfAAAgMsyDIPyAQAArPPVya90tPGoYmPMWyYaUPnwer165plnlJubq/j4ePXt21cvvPCCDMMwLRAAAAgdbaMeBekFpu0zoBoze/ZszZs3T2VlZcrLy1NFRYUefvhhJScn69FHHzUtFAAACA1t5WNk5kht0iZT9hnQyMfnn3+uyZMna8KECbrhhht07733aty4cdq4caMpYQAAQGhZX/338pE10rR9BlQ+brvtNq1atUp79+6VJFVWVmrt2rUaP378Zd/j8XjkdrvbPQAAQOg723JWW2u3Sjo38mGWgKZdnnrqKbndbg0YMEBOp1Ner1cvvviipk2bdtn3lJaWatasWR0OCgAArLX58Ga1+lqVlpCm3sm9TdtvQCMfS5Ys0XvvvaeFCxdq8+bNKisr03/+53+qrKzssu95+umnVV9f739UVVV1ODQAAAi+tvUet2bfKofDYdp+Axr5ePLJJ/XUU09p6tSpkqTBgwfrwIEDKi0tVXFx8SXf43K55HK5Op4UAABYqm29x+js0abuN6CRj8bGRsXEtH+L0+mUz+czNRQAALDf+SMfZgpo5GPSpEl68cUX1bt3b+Xl5WnLli36xS9+oenTp5saCgAA2OuQ+5AOuQ8pxhGjEZkj5G3ymrbvgMrHnDlz9Mwzz+iHP/yhjhw5oszMTP37v/+7nn32WdMCAQAA+204tEGSNCRtiBLiEuRuMu/bqgGVj8TERL322mt67bXXTAsAAABCj3/KJcvcKReJe7sAAIBLaFtsavZ6D4nyAQAALtDsbVZFTYUkygcAALDAF3VfqKm1Sd07d1e/lH6m75/yAQAA2mlb71GYXagYh/lVgfIBAADaCeZiU4nyAQAALhCsi4u1oXwAAAC/o2eO6suTX0qSRmWNCsoxKB8AAMBvQ/W5i4sN6DlA3eO7B+UYlA8AAODXNuVi9s3kzkf5AAAAfsFe7yFRPgAAwN95fV5trN4oifIBAAAssOvYLp1uPq2ETgnK65UXtONQPgAAgKR/TLmMyholZ4wzaMehfAAAAEnWrPeQKB8AAODv1h1aJ4nyAQAALHCq6ZR2Ht0pSSrMKgzqsSgfAABA5dXlkqTcbrlK65oW1GNRPgAAgGXrPSTKBwAAkLS+mvIBAAAsYhgGIx8AAMA6+0/s14mzJ+RyunRL+i1BPx7lAwCAKNc26jE8c7jinHFBPx7lAwCAKOefcskK/pSLRPkAACDqWbnYVKJ8AAAQ1RpbGlVZWymJ8gEAACywqWaTvIZXmYmZyk7KtuSYlA8AAKLY+V+xdTgclhyT8gEAQBTz30zOosWmEuUDAICoZRiGZXeyPR/lAwCAKFXlrlJtQ62cDqeGZw637LiUDwAAolTbeo+C9AJ16dTFsuNSPgAAiFJWX1ysDeUDAIAoZeXN5M5H+QAAIAp5Wj3afHizJGl0zmhLj035AAAgClXWVcrj9SglPkV9u/e19NiUDwAAopAdFxdrQ/kAACAK2bXeQ6J8AAAQlSgfAADAMnUNdfr61NdyyKGRmSMtPz7lAwCAKLOheoMkaVCvQUrunGz58SkfAABEGTunXCTKBwAAUceOm8mdj/IBAEAUafW1qry6XBLlAwAAWGDHkR0603JGiXGJGthzoC0ZKB8AAESRtvUeo7JGyRnjtCUD5QMAgCiyvtrexaYS5QMAgKjSNvIxOtvam8mdj/IBAECUOHn2pHYf2y1JKswutC0H5QMAgCixsXqjJOmmHjepZ5eetuWgfAAAECXsvrhYG8oHAABRwr/YNIvyAQAAgsxn+LTh0Ll7ujDyAQAAgm7f8X062XRSnWM7a0jaEFuzUD4AAIgCbes9RmSOUCdnJ1uzUD4AAIgC/pvJ2bzeQ6J8AAAQFULlmy4S5QMAgIjX0NygbUe2SaJ8AAAAC1TUVMhn+JSdlK2spCy741A+AACIdKE05SJRPgAAiHihcDO581E+AACIYIZhMPIBAACsc6D+gOrO1KlTTCcNTR9qdxxJlA8AACJa26jHLem3KL5TvM1pzqF8AAAQwUJtykWifAAAENEoHwAAwDKeVo+21G6RRPkAAAAW2FK7Rc3eZvXq0ku53XLtjuNH+QAAIEKtq/r7zeSyb5XD4bA5zT9QPgAAiFDrq0NvvYdE+QAAIGKF4mJTifIBAEBEqjldo4P1B+WQQyMzR9odp52Ay0d1dbUeeOABpaSkKD4+XoMHD1ZFRUUwsgEAgOu04dAGSVJ+ar4SXYk2p2kvNpAXnzx5UmPGjNG3vvUtLV++XL169dK+ffvUvXv3YOUDAADXIdRuJne+gMrH7NmzlZOTo3feece/LTc3dL66AwAAzgnVxaZSgNMuf/rTnzRixAhNmTJFqampGjp0qN5+++0rvsfj8cjtdrd7AACA4Gn1taq8ulxSBJSPr776SvPmzVO/fv20YsUK/eAHP9Cjjz6qsrKyy76ntLRUycnJ/kdOTk6HQwMAgMvbVrdNZ1vPKtmVrP49+9sd5yIOwzCMa31xXFycRowYoc8//9y/7dFHH1V5ebnWrVt3yfd4PB55PB7/n91ut3JyclRfX6+kpKQORAcAAJcyr3yefvg/P9S4vuO04oEVpuzT7XYrOTnZlPN3QCMfGRkZGjRoULttAwcO1MGDBy/7HpfLpaSkpHYPAAAQPP71HlmhN+UiBVg+xowZoz179rTbtnfvXvXp08fUUAAA4PqF6sXF2gRUPh5//HGtX79eL730kvbv36+FCxfqrbfe0owZM4KVDwAABOB443HtPb5XkjQqa5TNaS4toPIxcuRILV26VO+//77y8/P1wgsv6LXXXtO0adOClQ8AAARgQ/W5i4vdnHKzUrqk2Jzm0gK6zockTZw4URMnTgxGFgAA0EGhPuUicW8XAAAiir98hOhiU4nyAQBAxPAZPv+0CyMfAAAg6HYf2y23x60unbpocNpgu+NcFuUDAIAI0TblMjJzpGJjAl7WaRnKBwAAESIcFptKlA8AACIG5QMAAFjmtOe0th/ZLkkqzCq0Oc2VUT4AAIgA5TXlMmSoT3IfZSRm2B3niigfAABEgHCZcpEoHwAARATKBwAAsIxhGJQPAABgna9OfqWjjUcV54zT0PShdse5KsoHAABhrm3UY2j6ULliXTanuTrKBwAAYS6cplwkygcAAGFvfTXlAwAAWORsy1ltrd0qifIBAAAssPnwZrX6WpXeNV19kvvYHeeaUD4AAAhj56/3cDgcNqe5NpQPAADCmH+9R1Z4TLlIlA8AAMJauH3TRaJ8AAAQtg65D+mQ+5BiHDEakTnC7jjXjPIBAECY2nBogyRpSNoQJcQl2Jzm2lE+AAAIU/4plzBa7yFRPgAACFvhdnGxNpQPAADCULO3WRU1FZIoHwAAwAJf1H2hptYmde/cXf1S+tkdJyCUDwAAwlDbeo/C7ELFOMLrdB5eaQEAgKTwXWwqUT4AAAhL4XhxsTaUDwAAwszRM0f15ckvJZ2bdgk3lA8AAMLMhupzFxcb2HOgunXuZm+Y60D5AAAgzITzlItE+QAAIOxQPgAAgGW8Pq82Vm+URPkAAAAW2HVsl043n1ZCpwTl9cqzO851oXwAABBG2qZcRmWNkjPGaXOa60P5AAAgjIT7eg+J8gEAQFhZd2idJMoHAACwwKmmU9p5dKckqTAr/C4u1obyAQBAmCivLpck5XbLVVrXNJvTXD/KBwAAYSIS1ntIlA8AAMLG+mrKBwAAsIhhGP6Rj9HZo21O0zGUDwAAwsD+E/t14uwJuZwuFaQX2B2nQygfAACEgbZRj+GZwxXnjLM5TcdQPgAACAP+xaZZ4b3eQ6J8AAAQFiJlsalE+QAAIOQ1tjSqsrZSEuUDAABYYFPNJnkNrzITM5WdlG13nA6jfAAAEOLOv7iYw+GwOU3HUT4AAAhx/pvJRcBiU4nyAQBASDMMIyLuZHs+ygcAACGsyl2l2oZaOR1ODc8cbnccU1A+AAAIYW3rPQrSC9SlUxeb05iD8gEAQAiLpIuLtaF8AAAQwvw3k8sJ75vJnY/yAQBAiPK0erT58GZJkbPYVKJ8AAAQsirrKuXxepQSn6K+3fvaHcc0lA8AAEJUpF1crA3lAwCAEHV++YgklA8AAEIU5QMAAFimrqFOX5/6Wg45NDJzpN1xTEX5AAAgBG2o3iBJGtRrkJI7J9ucxlyUDwAAQtC6qsi6n8v5KB8AAISg9dWRud5DonwAABByWn2tKq8ul0T5AAAAFthxZIfOtJxRYlyiBvYcaHcc01E+AAAIMW1fsR2VNUrOGKfNacxH+QAAIMS0rfcYnR05N5M7H+UDAIAQE6kXF2tD+QAAIIScPHtSu4/tliQVZhfanCY4OlQ+Xn75ZTkcDs2cOdOkOAAARLeN1RslSTf1uEk9u/S0OU1wXHf5KC8v1/z58zVkyBAz8wAAENUifcpFus7y0dDQoGnTpuntt99W9+7dzc4EAEDU8l9cLIvy0c6MGTM0YcIEjR079qqv9Xg8crvd7R4AAOBiPsOnDYfO3dMlkkc+YgN9w6JFi7R582aVl5df0+tLS0s1a9asgIMBABBt9h3fp5NNJ9U5trOGpEXusoaARj6qqqr02GOP6b333lPnzp2v6T1PP/206uvr/Y+qqqrrCgoAQKRbd+jczeRGZI5QJ2cnm9MET0AjH5s2bdKRI0c0bNgw/zav16tPP/1Uc+fOlcfjkdPZ/kpsLpdLLpfLnLQAAEQw/2LTCF7vIQVYPu644w5t27at3baHH35YAwYM0I9//OOLigcAALh20fBNFynA8pGYmKj8/Px22xISEpSSknLRdgAAcO0amhu07ci5X/AjvXxwhVMAAEJARU2FfIZP2UnZykrKsjtOUAX8bZcLrV692oQYAABEt7Ypl0i9mdz5GPkAACAERMt6D4nyAQCA7QzDoHwAAADrHKg/oLozdeoU00lD04faHSfoKB8AANisbdTjlvRbFN8p3uY0wUf5AADAZtE05SJRPgAAsB3lAwAAWMbT6tGW2i2SKB8AAMACmw9vVrO3Wb269FJut1y741iC8gEAgI3On3JxOBw2p7EG5QMAAButr46u9R4S5QMAAFtF22JTifIBAIBtak7X6GD9QcU4YjQyc6TdcSxD+QAAwCYbDm2QJOWn5ivRlWhzGutQPgAAsIl/yiUreqZcJMoHAAC2icbFphLlAwAAW7T6WlVeXS6J8gEAACywrW6bzraeVbIrWf179rc7jqUoHwAA2KBtvUdhdqFiHNF1Oo6uTwsAQIjwr/eIssWmEuUDAABbROPFxdpQPgAAsNjxxuPae3yvJGlU1iib01iP8gEAgMU2VJ+7uNjNKTcrpUuKzWmsR/kAAMBi0TzlIlE+AACwXLRe2bQN5QMAAAv5DJ9/2oWRDwAAEHS7j+2W2+NWl05dNDhtsN1xbEH5AADAQm1TLiMzRyo2JtbmNPagfAAAYKFoX2wqUT4AALAU5YPyAQCAZU57Tmv7ke2SpMKsQpvT2IfyAQCARcprymXIUJ/kPspIzLA7jm0oHwAAWIQpl3MoHwAAWITycQ7lAwAACxiGQfn4O8oHAAAW+OrkVzraeFRxzjgNTR9qdxxbUT4AALBA26jH0PShcsW6bE5jL8oHAAAWYMrlHygfAABYYH31ufIxOnu0zUnsR/kAACDIzrac1dbarZIY+ZAoHwAABN3mw5vV6mtVetd09U7ubXcc21E+AAAIsvPXezgcDpvT2I/yAQBAkLWt97g1iykXifIBAEDQ8U2X9igfAAAE0SH3IR1yH1KMI0YjMkfYHSckUD4AAAiiDYc2SJKGpA1RQlyCzWlCA+UDAIAg8k+5sN7Dj/IBAEAQ+Rebst7Dj/IBAECQNHubVVFTIYnycT7KBwAAQfJF3Rdqam1S987d1S+ln91xQgblAwCAIGlb71GYXagYB6fcNvwvAQBAkLSVD24m1x7lAwCAIOHiYpdG+QAAIAiOnjmqL09+KUkalTXK5jShhfIBAEAQbKg+d3GxgT0HqlvnbvaGCTGUDwAAgoApl8ujfAAAEASUj8ujfAAAYDKvz6uN1RslUT4uhfIBAIDJdh3bpdPNp5XQKUF5vfLsjhNyKB8AAJisbcplVNYoOWOcNqcJPZQPAABMxnqPK6N8AABgsnWH1kmifFwO5QMAABOdajqlnUd3SpIKswptThOaKB8AAJiovLpckpTbLVdpXdNsThOaKB8AAJjIfzO5HG4mdzmUDwAATLS++u+LTbNY73E5lA8AAExiGAbfdLkGlA8AAEyy/8R+nTh7Qi6nSwXpBXbHCVmUDwAATNI26jE8c7jinHE2pwldlA8AAEzin3JhvccVUT4AADCJf7Ep6z2uiPIBAIAJGlsaVVlbKYnycTUBlY/S0lKNHDlSiYmJSk1N1d133609e/YEKxsAAGFjU80meQ2vMhMzlZ2UbXeckBZQ+VizZo1mzJih9evXa+XKlWppadG4ceN05syZYOUDACDkNbU26a3Nb0k6N+rhcDhsThTaYgN58ccff9zuzwsWLFBqaqo2bdqkb37zm6YGAwAgHGys3qiSZSXadWyXJOm+QffZnCj0BVQ+LlRfXy9J6tGjx2Vf4/F45PF4/H92u90dOSQAACGhqbVJz69+Xq9+/qp8hk9pCWmaP3G+Jg+YbHe0kHfd5cPn82nmzJkaM2aM8vPzL/u60tJSzZo163oPAwBAyLlwtGPa4Gl6ffzr6hF/+V/G8Q8OwzCM63njD37wAy1fvlxr165VdvblF9ZcauQjJydH9fX1SkpKup5DAwBgC0+rR8+vfl6vfP6Kf7TjzYlv6u4Bd9sdLejcbreSk5NNOX9f18jHI488oo8++kiffvrpFYuHJLlcLrlcrusKBwBAqCivLlfJByXaeXSnJOl7g7+n1//ldaV0SbE5WfgJqHwYhqEf/ehHWrp0qVavXq3c3Nxg5QIAICR4Wj2atWaWXvnsFXkNr1ITUjV/4vyoGO0IloDKx4wZM7Rw4UJ98MEHSkxMVG1trSQpOTlZ8fHxQQkIAIBdLhztuD//fs0ZP4fRjg4KaM3H5b63/M4776ikpOSa9mHmnBEAAMHgafXo/675v5r92Wz/aMe8CfN0z8B77I5mG9vWfFzn2lQAAMJGRU2FHv7gYW0/sl2SNDV/quaMn6OeXXranCxydOg6HwAARIoLRzt6demlNye+GdWjHcFC+QAARL1NNZtU8kGJf7SjKK9Ic++ay2hHkFA+AABRq9nbrBfWvKDStaX+0Y55E+bpu4O+a3e0iEb5AABEpc2HN6tkWYm2HdkmSbov7z7NHT9XvRJ62Zws8lE+AABR5cLRjp5demrehHm6d9C9dkeLGpQPAEDUuHC0Y8qgKXrjrjcY7bAY5QMAEPGavc168dMX9dLal9Tqa1XPLj31q7t+pSl5U+yOFpUoHwCAiLa1dqtKlpWosq5SknTvoHv1xl1vKDUh1eZk0YvyAQCISJca7Xjjrjd0X959dkeLepQPAEDEuXC047sDv6tfTfgVox0hgvIBAIgYzd5mlf61VD/768/U6mtVSnyKf7Tjcvcng/UoHwCAiFBZW6niZcX+0Y57Bt6jX931K6V1TbM5GS5E+QAAhLUWb4te+utL7UY75t41V0V5RYx2hCjKBwAgbH1R94VKlpVoS+0WSdJ3BnxH8ybMY7QjxFE+AABhp8XbopfXvqwXPn1BLb4W9Yjvobnj52pq/lRGO8IA5QMAEFYY7Qh/lA8AQFi41GjHnPFzdH/+/Yx2hBnKBwAg5G2r26aSD0q0+fBmSdLk/pP15sQ3ld413eZkuB6UDwBAyGrxtuiVz17RrDWz1OJrUffO3TVn/Bx9b/D3GO0IY5QPAEBI2n5ku4qXFTPaEYEoHwCAkNLqa9XstbPbjXa8Pv51TRs8jdGOCEH5AACEjO1HtqtkWYk2Hd4kSZp08yTNnzhfGYkZNieDmSgfAADbtfpa/Ws7mr3NjHZEOMoHAMBWO47sUMkHJaqoqZDEaEc0oHwAAGzR6mvVq5+9qufXPK9mb7O6de6m1//ldT0w5AFGOyIc5QMAYLmdR3eqZFmJymvKJUkTb56o+RPnKzMx0+ZksALlAwBgCZ/h07HGY/rvLf+t51Y/5x/t+OW//FIPDnmQ0Y4oQvkAAHTY2Zazqjldo+rT1ap2V7f/599/rjldoxZfi/89E/pN0PyJ85WVlGVjctiB8gEAuCzDMHSs8dgVS0X16WqdOHvimvfZJ7mPZv3zLD1U8BCjHVGK8gEAUaqptencaMUVSkXN6Ro1e5uvaX/xsfHKSspSVmLWP/55/s9JWUrvmq44Z1yQPxlCHeUDACKMYRg6fvb4xaXignJx/Ozxa95nakLqFUtFVmKWunXuxkgGrgnlAwDCiKfVc01rKzxezzXtr3Ns56uWiozEDEYrYCrKBwCEmN3HdmvtwbWXnAY51njsmvfTq0uvK5aKrKQsde/cndEKWI7yAQAh4MsTX2rxjsVavGOxvqj74oqvdTldV11bkdE1Q65Yl0XpgcBQPgDAJlX1VVqyY4kW7Vjkv7S4JHWK6aRv9vmmbux+4yVHLHrE92C0AmGN8gEAFqptqNXvdvxOi3cs1mdVn/m3xzhidEfuHSrKK9J3Bn5HPeJ72JgSCC7KBwAE2bHGY/rjrj9q0fZFWnNgjXyGT5LkkEO397ldU/Om6ruDvqvUhFSbkwLWoHwAQBCcajqlZbuXafGOxVr55Up5Da//uVuzb1VRXpGmDJrC1T0RlSgfAGCShuYGfbjnQy3asUgf7/+43cW5hqYP1dT8qbov7z7d0O0G+0ICIYDyAQAdcLblrP5n3/9o8Y7F+mjvRzrbetb/XF6vPBXlFakov0g3p9xsY0ogtFA+ACBAzd5mffLlJ1q0fZE+2POBGpob/M/d1OMmTc2bqqL8IuWn5tuYEghdlA8AuAatvlb9+es/a/H2xfrj7j/qVNMp/3O9k3v7C8fQ9KF8DRa4CsoHAFyG1+fV2oNrtWj7Iv1h1x90tPGo/7mMrhm6L+8+Tc2fqsKsQgoHEADKBwCcxzAMrT+0Xot3LNaSHUt0uOGw/7meXXpqyqApKsor0jd6f0POGKeNSYHwRfkAEPUMw9CW2i1atH2RluxYogP1B/zPdevcTfcMuEdT86fqW7nfUmwM/9kEOor/FwGIWtuPbNfi7Yu1aMci7T+x37+9a1xX3T3gbhXlFWlc33Hc0RUwGeUDQFTZe3yvFm8/dwO3HUd3+LfHx8Zr4s0TNTV/qsbfNF7xneJtTAlENsoHgIj3t1N/8xeOLbVb/NvjnHEaf9N4FeUVaVL/Seoa19XGlED0oHwAiEjV7mr9bufvtGj7Im2o3uDfHhsTq7E3jtXUvKmaPGCyunXuZl9IIEpRPgBEjCNnjuj3O3+vxTsW668H/ipDhqRzd4z95xv+WUV5Rbpn4D3q2aWnzUmB6Eb5ABDWTpw9oaW7lmrRjkX689d/9t8xVpLG5IzR1PypunfQvUrvmm5jSgDno3wAsJ1hGGpqbVJjS+MlH2dbz15ye0VNhT758hO1+Fr8+xqZOVJFeUW6L+8+5STn2PipAFwO5QPAZRmGIY/X848S0HLpEnCtZeFKr+uIIWlDNDXv3B1j+/boa9KnBxAslA9ck8aWRrk9bhmG4Z9Hv/BnSTJkBP3nSx3bzJ8vPG5HXmv385LU4m259Mm/tfGaSkXbfqzicroU3yleXTp1ufIjtosyEzN1z8B7NLDXQEszAugYygcuq8Xboo/3f6yyyjJ9uPdDNXub7Y4EG3WK6XTJEnBRUYi9fGG4WqmIj43nkuVAFKB84CKVtZUqqyzTe9ve05EzR/zbHXLI4XDIoXM30LL65/MzBPvnK+W52mvtfv7C18bGxCqhU4L/5H7VEYVLFIX42Hh1cna6wr81AHDtKB+QdO4rigu3LdSCrQtUWVfp356akKoHBj+g4luKNSRtiI0JAQCRgvIRxTytHn209yOVVZZp+f7lavW1Sjp31cd/7f+vKi4o1p197+Q3XgCAqSgfUcYwDFXUVGjB1gVatGORTpw94X9uVNYolRSUqCi/SD3ie9iYEgAQySgfUaLaXa3ffvFblVWWadexXf7tWYlZenDIgyq+pVgDeg6wMSEAIFpQPiLY2ZazWrZ7mcoqy7Tyq5X+Kz/Gx8brOwO/o5KCEn0799t8uwAAYCnKR4QxDEOfVX2msq1lWrJzidwet/+523vfruKCYk3Jm6IkV5KNKQEA0YzyESEOnDqg31T+Rr/54jfaf2K/f/sN3W7QQ0Me0kMFD3HlRwBASKB8hLGG5gb9YecftKBygVb/bbV/e9e4rpoyaIqKC4p1e5/bFeOIsS8kAAAXoHyEGZ/h0+q/rVZZZZn+sPMPOtNyRtK5C059O/fbKi4o1j0D71FCXILNSQEAuDTKR5jYd3yff1rlYP1B//Z+PfqpuKBYDxY8qN7JvW1MCADAtaF8hLBTTae0ZMcSlVWW6fOqz/3bk13Jmpo/VcUFxbo1+1b/5bYBAAgHlI8Q4/V5tfKrlSqrLNOy3cvU1NokSYpxxOjOvnequKBYkwdMVufYzjYnBQDg+lA+QsSOIztUVlmm337xWx1uOOzfntcrTyW3lGja4GnKSMywMSEAAOagfNjoeONxvb/9fZVVlqmipsK/PSU+Rd8b/D0VFxRrWMYwplUAABGF8mGxFm+Llu9frgVbF+ijvR+pxdciSYqNidWEfhNUckuJ7up3l+KccTYnBQAgOK6rfLzxxht69dVXVVtbq4KCAs2ZM0ejRo0yO1vEMAxDW2u3qqyyTAu3LdTRxqP+54ZlDFNxQbHuz79fvRJ62ZgSAABrBFw+Fi9erCeeeEJvvvmmCgsL9dprr+nOO+/Unj17lJqaGoyMYauuoU7vbXtPC7Yu0LYj2/zb0xLS9MCQB1RcUKzBaYNtTAgAgPUchmEYgbyhsLBQI0eO1Ny5cyVJPp9POTk5+tGPfqSnnnrqqu93u91KTk5WfX29kpIi7/4iTa1N+nDPhyqrLNPH+z+W1/BKklxOlyYPmKzigmKN6ztOsTHMeAEAwoeZ5++AzoDNzc3atGmTnn76af+2mJgYjR07VuvWrbvkezwejzwej//Pbve5G539n/duU1x8x+6maiig3nSF/ZijobVF/+/I1zrZ8o/Pe2u3dBXnDFRRxs3qHtdZcn8ibfnEpCMCAEJKYL/Ph5cGz9Vfc40CKh/Hjh2T1+tVWlpau+1paWnavXv3Jd9TWlqqWbNmXbT91wd3SBF6qYrsWOmhROmhJKl/XK3UVCt9/Re7YwEAcP0azdtV0Mf+n376aT3xxBP+P7vdbuXk5OjH/W6Vq0tgh7/eL5xe71dVA31XjMOhW7tn6Vu9+sjJzdwAAJGkwSPp56bsKqCzf8+ePeV0OlVXV9due11dndLT0y/5HpfLJZfLddH2n9y7IiLXfAAAEJHcbplVPgL69TwuLk7Dhw/XqlWr/Nt8Pp9WrVql0aNHmxIIAABEtoCnXZ544gkVFxdrxIgRGjVqlF577TWdOXNGDz/8cDDyAQCACBNw+SgqKtLRo0f17LPPqra2Vrfccos+/vjjixahAgAAXErA1/noqEi/zgcAAJHIzPM3X8kAAACWonwAAABLUT4AAIClKB8AAMBSlA8AAGApygcAALAU5QMAAFiK8gEAACxF+QAAAJYK+PLqHdV2QVW32231oQEAwHVqO2+bcWF0y8vH8ePHJUk5OTlWHxoAAHTQ8ePHlZyc3KF9WF4+evToIUk6ePBgh8OHGrfbrZycHFVVVUXcfWv4bOGJzxae+GzhKZI/myTV19erd+/e/vN4R1hePmJizi0zSU5Ojsi/HElKSkris4UhPlt44rOFJz5b+Go7j3doHybkAAAAuGaUDwAAYCnLy4fL5dJzzz0nl8tl9aGDjs8Wnvhs4YnPFp74bOHLzM/nMMz4zgwAAMA1YtoFAABYivIBAAAsRfkAAACWonwAAABLWVY+Pv30U02aNEmZmZlyOBxatmyZVYcOqtLSUo0cOVKJiYlKTU3V3XffrT179tgdyzTz5s3TkCFD/BfNGT16tJYvX253LNO9/PLLcjgcmjlzpt1RTPH888/L4XC0ewwYMMDuWKaprq7WAw88oJSUFMXHx2vw4MGqqKiwO1aH3XDDDRf9vTkcDs2YMcPuaB3m9Xr1zDPPKDc3V/Hx8erbt69eeOEFU+4TEgpOnz6tmTNnqk+fPoqPj9dtt92m8vJyu2MF7GrnasMw9OyzzyojI0Px8fEaO3as9u3bF/BxLCsfZ86cUUFBgd544w2rDmmJNWvWaMaMGVq/fr1WrlyplpYWjRs3TmfOnLE7mimys7P18ssva9OmTaqoqNC3v/1tTZ48WTt27LA7mmnKy8s1f/58DRkyxO4opsrLy9Phw4f9j7Vr19odyRQnT57UmDFj1KlTJy1fvlw7d+7Uz3/+c3Xv3t3uaB1WXl7e7u9s5cqVkqQpU6bYnKzjZs+erXnz5mnu3LnatWuXZs+erVdeeUVz5syxO5opvv/972vlypV69913tW3bNo0bN05jx45VdXW13dECcrVz9SuvvKLXX39db775pjZs2KCEhATdeeedampqCuxAhg0kGUuXLrXj0EF35MgRQ5KxZs0au6METffu3Y1f//rXdscwxenTp41+/foZK1euNP7pn/7JeOyxx+yOZIrnnnvOKCgosDtGUPz4xz82vvGNb9gdwxKPPfaY0bdvX8Pn89kdpcMmTJhgTJ8+vd22e+65x5g2bZpNiczT2NhoOJ1O46OPPmq3fdiwYcZPf/pTm1J13IXnap/PZ6Snpxuvvvqqf9upU6cMl8tlvP/++wHtmzUfJquvr5ckU268E2q8Xq8WLVqkM2fOaPTo0XbHMcWMGTM0YcIEjR071u4optu3b58yMzN14403atq0aTp48KDdkUzxpz/9SSNGjNCUKVOUmpqqoUOH6u2337Y7lumam5v129/+VtOnT5fD4bA7TofddtttWrVqlfbu3StJqqys1Nq1azV+/Hibk3Vca2urvF6vOnfu3G57fHx8xIw4StLXX3+t2tradv+9TE5OVmFhodatWxfQviy/sVwk8/l8mjlzpsaMGaP8/Hy745hm27ZtGj16tJqamtS1a1ctXbpUgwYNsjtWhy1atEibN28Oy3nZqyksLNSCBQvUv39/HT58WLNmzdLtt9+u7du3KzEx0e54HfLVV19p3rx5euKJJ/STn/xE5eXlevTRRxUXF6fi4mK745lm2bJlOnXqlEpKSuyOYoqnnnpKbrdbAwYMkNPplNfr1Ysvvqhp06bZHa3DEhMTNXr0aL3wwgsaOHCg0tLS9P7772vdunW66aab7I5nmtraWklSWlpau+1paWn+564V5cNEM2bM0Pbt2yOq6UpS//79tXXrVtXX1+v3v/+9iouLtWbNmrAuIFVVVXrssce0cuXKi35biQTn/zY5ZMgQFRYWqk+fPlqyZIn+7d/+zcZkHefz+TRixAi99NJLkqShQ4dq+/btevPNNyOqfPzXf/2Xxo8fr8zMTLujmGLJkiV67733tHDhQuXl5Wnr1q2aOXOmMjMzI+Lv7d1339X06dOVlZUlp9OpYcOG6f7779emTZvsjhaSmHYxySOPPKKPPvpIf/nLX5SdnW13HFPFxcXppptu0vDhw1VaWqqCggL98pe/tDtWh2zatElHjhzRsGHDFBsbq9jYWK1Zs0avv/66YmNj5fV67Y5oqm7duunmm2/W/v377Y7SYRkZGRcV34EDB0bMtJIkHThwQP/7v/+r73//+3ZHMc2TTz6pp556SlOnTtXgwYP14IMP6vHHH1dpaand0UzRt29frVmzRg0NDaqqqtLGjRvV0tKiG2+80e5opklPT5ck1dXVtdteV1fnf+5aUT46yDAMPfLII1q6dKn+/Oc/Kzc31+5IQefz+eTxeOyO0SF33HGHtm3bpq1bt/ofI0aM0LRp07R161Y5nU67I5qqoaFBX375pTIyMuyO0mFjxoy56Ovse/fuVZ8+fWxKZL533nlHqampmjBhgt1RTNPY2KiYmPanHKfTKZ/PZ1Oi4EhISFBGRoZOnjypFStWaPLkyXZHMk1ubq7S09O1atUq/za3260NGzYEvA7QsmmXhoaGdr91ff3119q6dat69Oih3r17WxXDdDNmzNDChQv1wQcfKDEx0T/vlZycrPj4eJvTddzTTz+t8ePHq3fv3jp9+rQWLlyo1atXa8WKFXZH65DExMSL1uUkJCQoJSUlItbr/Md//IcmTZqkPn36qKamRs8995ycTqfuv/9+u6N12OOPP67bbrtNL730ku677z5t3LhRb731lt566y27o5nC5/PpnXfeUXFxsWJjI2dmfNKkSXrxxRfVu3dv5eXlacuWLfrFL36h6dOn2x3NFCtWrJBhGOrfv7/279+vJ598UgMGDNDDDz9sd7SAXO1cPXPmTP3sZz9Tv379lJubq2eeeUaZmZm6++67AzuQOV/Iubq//OUvhqSLHsXFxVZFCIpLfSZJxjvvvGN3NFNMnz7d6NOnjxEXF2f06tXLuOOOO4xPPvnE7lhBEUlftS0qKjIyMjKMuLg4IysryygqKjL2799vdyzTfPjhh0Z+fr7hcrmMAQMGGG+99ZbdkUyzYsUKQ5KxZ88eu6OYyu12G4899pjRu3dvo3PnzsaNN95o/PSnPzU8Ho/d0UyxePFi48YbbzTi4uKM9PR0Y8aMGcapU6fsjhWwq52rfT6f8cwzzxhpaWmGy+Uy7rjjjuv6d9VhGBFyeTkAABAWWPMBAAAsRfkAAACWonwAAABLUT4AAIClKB8AAMBSlA8AAGApygcAALAU5QMAAFiK8gEAACxF+QAAAJaifAAAAEtRPgAAgKX+P0+KTi1YDjDWAAAAAElFTkSuQmCC;" vertex="1" parent="1">
          <mxGeometry x="260" y="200" width="259.49" height="197.61" as="geometry" />
        </mxCell>
      </root>
    </mxGraphModel>
  </diagram>
</mxfile>
